<mxfile host="app.diagrams.net" modified="2024-05-25T08:27:14.372Z" agent="Mozilla/5.0 (Windows NT 10.0; Win64; x64) AppleWebKit/537.36 (KHTML, like Gecko) Chrome/124.0.0.0 Safari/537.36" etag="fQ_i1UQeyLrKFmRvxBm6" version="24.4.6" type="device">
  <diagram name="Σελίδα-1" id="v0jm0V9iV5qM41HP9nKc">
    <mxGraphModel dx="2103" dy="998" grid="0" gridSize="10" guides="1" tooltips="1" connect="1" arrows="1" fold="1" page="1" pageScale="1" pageWidth="2400" pageHeight="1600" math="0" shadow="0">
      <root>
        <mxCell id="0" />
        <mxCell id="1" parent="0" />
        <mxCell id="2zF8VjNUCW6DVoFqIz8W-1" value="Recipe" style="shape=table;startSize=30;container=1;collapsible=1;childLayout=tableLayout;fixedRows=1;rowLines=0;fontStyle=1;align=center;resizeLast=1;html=1;fillColor=#B2C9AB;strokeColor=#788AA3;labelBackgroundColor=none;fontColor=#000000;" parent="1" vertex="1">
          <mxGeometry x="66" y="362" width="199.04345703125017" height="569.1739926545517" as="geometry" />
        </mxCell>
        <mxCell id="2zF8VjNUCW6DVoFqIz8W-2" value="" style="shape=tableRow;horizontal=0;startSize=0;swimlaneHead=0;swimlaneBody=0;fillColor=none;collapsible=0;dropTarget=0;points=[[0,0.5],[1,0.5]];portConstraint=eastwest;top=0;left=0;right=0;bottom=1;labelBackgroundColor=none;strokeColor=#788AA3;fontColor=#46495D;" parent="2zF8VjNUCW6DVoFqIz8W-1" vertex="1">
          <mxGeometry y="30" width="199.04345703125017" height="30" as="geometry" />
        </mxCell>
        <mxCell id="2zF8VjNUCW6DVoFqIz8W-3" value="PK" style="shape=partialRectangle;connectable=0;fillColor=none;top=0;left=0;bottom=0;right=0;fontStyle=0;overflow=hidden;whiteSpace=wrap;html=1;strokeColor=#788AA3;labelBackgroundColor=none;fontColor=#46495D;" parent="2zF8VjNUCW6DVoFqIz8W-2" vertex="1">
          <mxGeometry width="30" height="30" as="geometry">
            <mxRectangle width="30" height="30" as="alternateBounds" />
          </mxGeometry>
        </mxCell>
        <mxCell id="2zF8VjNUCW6DVoFqIz8W-4" value="recipe_id" style="shape=partialRectangle;connectable=0;fillColor=none;top=0;left=0;bottom=0;right=0;align=left;spacingLeft=6;fontStyle=4;overflow=hidden;whiteSpace=wrap;html=1;strokeColor=#788AA3;labelBackgroundColor=none;fontColor=#000000;" parent="2zF8VjNUCW6DVoFqIz8W-2" vertex="1">
          <mxGeometry x="30" width="169.04345703125017" height="30" as="geometry">
            <mxRectangle width="169.04345703125017" height="30" as="alternateBounds" />
          </mxGeometry>
        </mxCell>
        <mxCell id="2zF8VjNUCW6DVoFqIz8W-5" value="" style="shape=tableRow;horizontal=0;startSize=0;swimlaneHead=0;swimlaneBody=0;fillColor=none;collapsible=0;dropTarget=0;points=[[0,0.5],[1,0.5]];portConstraint=eastwest;top=0;left=0;right=0;bottom=0;labelBackgroundColor=none;strokeColor=#788AA3;fontColor=#46495D;" parent="2zF8VjNUCW6DVoFqIz8W-1" vertex="1">
          <mxGeometry y="60" width="199.04345703125017" height="30" as="geometry" />
        </mxCell>
        <mxCell id="2zF8VjNUCW6DVoFqIz8W-6" value="" style="shape=partialRectangle;connectable=0;fillColor=none;top=0;left=0;bottom=0;right=0;editable=1;overflow=hidden;whiteSpace=wrap;html=1;strokeColor=#788AA3;labelBackgroundColor=none;fontColor=#46495D;" parent="2zF8VjNUCW6DVoFqIz8W-5" vertex="1">
          <mxGeometry width="30" height="30" as="geometry">
            <mxRectangle width="30" height="30" as="alternateBounds" />
          </mxGeometry>
        </mxCell>
        <mxCell id="2zF8VjNUCW6DVoFqIz8W-7" value="name" style="shape=partialRectangle;connectable=0;fillColor=none;top=0;left=0;bottom=0;right=0;align=left;spacingLeft=6;overflow=hidden;whiteSpace=wrap;html=1;strokeColor=#788AA3;labelBackgroundColor=none;fontColor=#000000;" parent="2zF8VjNUCW6DVoFqIz8W-5" vertex="1">
          <mxGeometry x="30" width="169.04345703125017" height="30" as="geometry">
            <mxRectangle width="169.04345703125017" height="30" as="alternateBounds" />
          </mxGeometry>
        </mxCell>
        <mxCell id="2zF8VjNUCW6DVoFqIz8W-8" value="" style="shape=tableRow;horizontal=0;startSize=0;swimlaneHead=0;swimlaneBody=0;fillColor=none;collapsible=0;dropTarget=0;points=[[0,0.5],[1,0.5]];portConstraint=eastwest;top=0;left=0;right=0;bottom=0;labelBackgroundColor=none;strokeColor=#788AA3;fontColor=#46495D;" parent="2zF8VjNUCW6DVoFqIz8W-1" vertex="1">
          <mxGeometry y="90" width="199.04345703125017" height="30" as="geometry" />
        </mxCell>
        <mxCell id="2zF8VjNUCW6DVoFqIz8W-9" value="" style="shape=partialRectangle;connectable=0;fillColor=none;top=0;left=0;bottom=0;right=0;editable=1;overflow=hidden;whiteSpace=wrap;html=1;strokeColor=#788AA3;labelBackgroundColor=none;fontColor=#46495D;" parent="2zF8VjNUCW6DVoFqIz8W-8" vertex="1">
          <mxGeometry width="30" height="30" as="geometry">
            <mxRectangle width="30" height="30" as="alternateBounds" />
          </mxGeometry>
        </mxCell>
        <mxCell id="2zF8VjNUCW6DVoFqIz8W-10" value="description" style="shape=partialRectangle;connectable=0;fillColor=none;top=0;left=0;bottom=0;right=0;align=left;spacingLeft=6;overflow=hidden;whiteSpace=wrap;html=1;strokeColor=#788AA3;labelBackgroundColor=none;fontColor=#000000;" parent="2zF8VjNUCW6DVoFqIz8W-8" vertex="1">
          <mxGeometry x="30" width="169.04345703125017" height="30" as="geometry">
            <mxRectangle width="169.04345703125017" height="30" as="alternateBounds" />
          </mxGeometry>
        </mxCell>
        <mxCell id="2zF8VjNUCW6DVoFqIz8W-11" value="" style="shape=tableRow;horizontal=0;startSize=0;swimlaneHead=0;swimlaneBody=0;fillColor=none;collapsible=0;dropTarget=0;points=[[0,0.5],[1,0.5]];portConstraint=eastwest;top=0;left=0;right=0;bottom=0;labelBackgroundColor=none;strokeColor=#788AA3;fontColor=#46495D;" parent="2zF8VjNUCW6DVoFqIz8W-1" vertex="1">
          <mxGeometry y="120" width="199.04345703125017" height="30" as="geometry" />
        </mxCell>
        <mxCell id="2zF8VjNUCW6DVoFqIz8W-12" value="" style="shape=partialRectangle;connectable=0;fillColor=none;top=0;left=0;bottom=0;right=0;editable=1;overflow=hidden;whiteSpace=wrap;html=1;strokeColor=#788AA3;labelBackgroundColor=none;fontColor=#46495D;" parent="2zF8VjNUCW6DVoFqIz8W-11" vertex="1">
          <mxGeometry width="30" height="30" as="geometry">
            <mxRectangle width="30" height="30" as="alternateBounds" />
          </mxGeometry>
        </mxCell>
        <mxCell id="2zF8VjNUCW6DVoFqIz8W-13" value="recipe_type" style="shape=partialRectangle;connectable=0;fillColor=none;top=0;left=0;bottom=0;right=0;align=left;spacingLeft=6;overflow=hidden;whiteSpace=wrap;html=1;strokeColor=#788AA3;labelBackgroundColor=none;fontColor=#000000;" parent="2zF8VjNUCW6DVoFqIz8W-11" vertex="1">
          <mxGeometry x="30" width="169.04345703125017" height="30" as="geometry">
            <mxRectangle width="169.04345703125017" height="30" as="alternateBounds" />
          </mxGeometry>
        </mxCell>
        <mxCell id="2zF8VjNUCW6DVoFqIz8W-28" value="" style="shape=tableRow;horizontal=0;startSize=0;swimlaneHead=0;swimlaneBody=0;fillColor=none;collapsible=0;dropTarget=0;points=[[0,0.5],[1,0.5]];portConstraint=eastwest;top=0;left=0;right=0;bottom=0;labelBackgroundColor=none;strokeColor=#788AA3;fontColor=#46495D;" parent="2zF8VjNUCW6DVoFqIz8W-1" vertex="1">
          <mxGeometry y="150" width="199.04345703125017" height="30" as="geometry" />
        </mxCell>
        <mxCell id="2zF8VjNUCW6DVoFqIz8W-29" value="" style="shape=partialRectangle;connectable=0;fillColor=none;top=0;left=0;bottom=0;right=0;editable=1;overflow=hidden;whiteSpace=wrap;html=1;strokeColor=#788AA3;labelBackgroundColor=none;fontColor=#46495D;" parent="2zF8VjNUCW6DVoFqIz8W-28" vertex="1">
          <mxGeometry width="30" height="30" as="geometry">
            <mxRectangle width="30" height="30" as="alternateBounds" />
          </mxGeometry>
        </mxCell>
        <mxCell id="2zF8VjNUCW6DVoFqIz8W-30" value="difficulty" style="shape=partialRectangle;connectable=0;fillColor=none;top=0;left=0;bottom=0;right=0;align=left;spacingLeft=6;overflow=hidden;whiteSpace=wrap;html=1;strokeColor=#788AA3;labelBackgroundColor=none;fontColor=#000000;" parent="2zF8VjNUCW6DVoFqIz8W-28" vertex="1">
          <mxGeometry x="30" width="169.04345703125017" height="30" as="geometry">
            <mxRectangle width="169.04345703125017" height="30" as="alternateBounds" />
          </mxGeometry>
        </mxCell>
        <mxCell id="2zF8VjNUCW6DVoFqIz8W-31" value="" style="shape=tableRow;horizontal=0;startSize=0;swimlaneHead=0;swimlaneBody=0;fillColor=none;collapsible=0;dropTarget=0;points=[[0,0.5],[1,0.5]];portConstraint=eastwest;top=0;left=0;right=0;bottom=0;labelBackgroundColor=none;strokeColor=#788AA3;fontColor=#46495D;" parent="2zF8VjNUCW6DVoFqIz8W-1" vertex="1">
          <mxGeometry y="180" width="199.04345703125017" height="30" as="geometry" />
        </mxCell>
        <mxCell id="2zF8VjNUCW6DVoFqIz8W-32" value="" style="shape=partialRectangle;connectable=0;fillColor=none;top=0;left=0;bottom=0;right=0;editable=1;overflow=hidden;whiteSpace=wrap;html=1;strokeColor=#788AA3;labelBackgroundColor=none;fontColor=#46495D;" parent="2zF8VjNUCW6DVoFqIz8W-31" vertex="1">
          <mxGeometry width="30" height="30" as="geometry">
            <mxRectangle width="30" height="30" as="alternateBounds" />
          </mxGeometry>
        </mxCell>
        <mxCell id="2zF8VjNUCW6DVoFqIz8W-33" value="{step}" style="shape=partialRectangle;connectable=0;fillColor=none;top=0;left=0;bottom=0;right=0;align=left;spacingLeft=6;overflow=hidden;whiteSpace=wrap;html=1;strokeColor=#788AA3;labelBackgroundColor=none;fontColor=#000000;" parent="2zF8VjNUCW6DVoFqIz8W-31" vertex="1">
          <mxGeometry x="30" width="169.04345703125017" height="30" as="geometry">
            <mxRectangle width="169.04345703125017" height="30" as="alternateBounds" />
          </mxGeometry>
        </mxCell>
        <mxCell id="2zF8VjNUCW6DVoFqIz8W-34" value="" style="shape=tableRow;horizontal=0;startSize=0;swimlaneHead=0;swimlaneBody=0;fillColor=none;collapsible=0;dropTarget=0;points=[[0,0.5],[1,0.5]];portConstraint=eastwest;top=0;left=0;right=0;bottom=0;labelBackgroundColor=none;strokeColor=#788AA3;fontColor=#46495D;" parent="2zF8VjNUCW6DVoFqIz8W-1" vertex="1">
          <mxGeometry y="210" width="199.04345703125017" height="30" as="geometry" />
        </mxCell>
        <mxCell id="2zF8VjNUCW6DVoFqIz8W-35" value="" style="shape=partialRectangle;connectable=0;fillColor=none;top=0;left=0;bottom=0;right=0;editable=1;overflow=hidden;whiteSpace=wrap;html=1;strokeColor=#788AA3;labelBackgroundColor=none;fontColor=#46495D;" parent="2zF8VjNUCW6DVoFqIz8W-34" vertex="1">
          <mxGeometry width="30" height="30" as="geometry">
            <mxRectangle width="30" height="30" as="alternateBounds" />
          </mxGeometry>
        </mxCell>
        <mxCell id="2zF8VjNUCW6DVoFqIz8W-36" value="{meal_type}" style="shape=partialRectangle;connectable=0;fillColor=none;top=0;left=0;bottom=0;right=0;align=left;spacingLeft=6;overflow=hidden;whiteSpace=wrap;html=1;strokeColor=#788AA3;labelBackgroundColor=none;fontColor=#000000;" parent="2zF8VjNUCW6DVoFqIz8W-34" vertex="1">
          <mxGeometry x="30" width="169.04345703125017" height="30" as="geometry">
            <mxRectangle width="169.04345703125017" height="30" as="alternateBounds" />
          </mxGeometry>
        </mxCell>
        <mxCell id="2zF8VjNUCW6DVoFqIz8W-37" value="" style="shape=tableRow;horizontal=0;startSize=0;swimlaneHead=0;swimlaneBody=0;fillColor=none;collapsible=0;dropTarget=0;points=[[0,0.5],[1,0.5]];portConstraint=eastwest;top=0;left=0;right=0;bottom=0;labelBackgroundColor=none;strokeColor=#788AA3;fontColor=#46495D;" parent="2zF8VjNUCW6DVoFqIz8W-1" vertex="1">
          <mxGeometry y="240" width="199.04345703125017" height="30" as="geometry" />
        </mxCell>
        <mxCell id="2zF8VjNUCW6DVoFqIz8W-38" value="" style="shape=partialRectangle;connectable=0;fillColor=none;top=0;left=0;bottom=0;right=0;editable=1;overflow=hidden;whiteSpace=wrap;html=1;strokeColor=#788AA3;labelBackgroundColor=none;fontColor=#46495D;" parent="2zF8VjNUCW6DVoFqIz8W-37" vertex="1">
          <mxGeometry width="30" height="30" as="geometry">
            <mxRectangle width="30" height="30" as="alternateBounds" />
          </mxGeometry>
        </mxCell>
        <mxCell id="2zF8VjNUCW6DVoFqIz8W-39" value="{tip}" style="shape=partialRectangle;connectable=0;fillColor=none;top=0;left=0;bottom=0;right=0;align=left;spacingLeft=6;overflow=hidden;whiteSpace=wrap;html=1;strokeColor=#788AA3;labelBackgroundColor=none;fontColor=#000000;" parent="2zF8VjNUCW6DVoFqIz8W-37" vertex="1">
          <mxGeometry x="30" width="169.04345703125017" height="30" as="geometry">
            <mxRectangle width="169.04345703125017" height="30" as="alternateBounds" />
          </mxGeometry>
        </mxCell>
        <mxCell id="2zF8VjNUCW6DVoFqIz8W-40" value="" style="shape=tableRow;horizontal=0;startSize=0;swimlaneHead=0;swimlaneBody=0;fillColor=none;collapsible=0;dropTarget=0;points=[[0,0.5],[1,0.5]];portConstraint=eastwest;top=0;left=0;right=0;bottom=0;labelBackgroundColor=none;strokeColor=#788AA3;fontColor=#46495D;" parent="2zF8VjNUCW6DVoFqIz8W-1" vertex="1">
          <mxGeometry y="270" width="199.04345703125017" height="30" as="geometry" />
        </mxCell>
        <mxCell id="2zF8VjNUCW6DVoFqIz8W-41" value="" style="shape=partialRectangle;connectable=0;fillColor=none;top=0;left=0;bottom=0;right=0;editable=1;overflow=hidden;whiteSpace=wrap;html=1;strokeColor=#788AA3;labelBackgroundColor=none;fontColor=#46495D;" parent="2zF8VjNUCW6DVoFqIz8W-40" vertex="1">
          <mxGeometry width="30" height="30" as="geometry">
            <mxRectangle width="30" height="30" as="alternateBounds" />
          </mxGeometry>
        </mxCell>
        <mxCell id="2zF8VjNUCW6DVoFqIz8W-42" value="{tag}" style="shape=partialRectangle;connectable=0;fillColor=none;top=0;left=0;bottom=0;right=0;align=left;spacingLeft=6;overflow=hidden;whiteSpace=wrap;html=1;strokeColor=#788AA3;labelBackgroundColor=none;fontColor=#000000;" parent="2zF8VjNUCW6DVoFqIz8W-40" vertex="1">
          <mxGeometry x="30" width="169.04345703125017" height="30" as="geometry">
            <mxRectangle width="169.04345703125017" height="30" as="alternateBounds" />
          </mxGeometry>
        </mxCell>
        <mxCell id="2zF8VjNUCW6DVoFqIz8W-43" value="" style="shape=tableRow;horizontal=0;startSize=0;swimlaneHead=0;swimlaneBody=0;fillColor=none;collapsible=0;dropTarget=0;points=[[0,0.5],[1,0.5]];portConstraint=eastwest;top=0;left=0;right=0;bottom=0;labelBackgroundColor=none;strokeColor=#788AA3;fontColor=#46495D;" parent="2zF8VjNUCW6DVoFqIz8W-1" vertex="1">
          <mxGeometry y="300" width="199.04345703125017" height="30" as="geometry" />
        </mxCell>
        <mxCell id="2zF8VjNUCW6DVoFqIz8W-44" value="" style="shape=partialRectangle;connectable=0;fillColor=none;top=0;left=0;bottom=0;right=0;editable=1;overflow=hidden;whiteSpace=wrap;html=1;strokeColor=#788AA3;labelBackgroundColor=none;fontColor=#46495D;" parent="2zF8VjNUCW6DVoFqIz8W-43" vertex="1">
          <mxGeometry width="30" height="30" as="geometry">
            <mxRectangle width="30" height="30" as="alternateBounds" />
          </mxGeometry>
        </mxCell>
        <mxCell id="2zF8VjNUCW6DVoFqIz8W-45" value="portion" style="shape=partialRectangle;connectable=0;fillColor=none;top=0;left=0;bottom=0;right=0;align=left;spacingLeft=6;overflow=hidden;whiteSpace=wrap;html=1;strokeColor=#788AA3;labelBackgroundColor=none;fontColor=#000000;" parent="2zF8VjNUCW6DVoFqIz8W-43" vertex="1">
          <mxGeometry x="30" width="169.04345703125017" height="30" as="geometry">
            <mxRectangle width="169.04345703125017" height="30" as="alternateBounds" />
          </mxGeometry>
        </mxCell>
        <mxCell id="2zF8VjNUCW6DVoFqIz8W-46" value="" style="shape=tableRow;horizontal=0;startSize=0;swimlaneHead=0;swimlaneBody=0;fillColor=none;collapsible=0;dropTarget=0;points=[[0,0.5],[1,0.5]];portConstraint=eastwest;top=0;left=0;right=0;bottom=0;labelBackgroundColor=none;strokeColor=#788AA3;fontColor=#46495D;" parent="2zF8VjNUCW6DVoFqIz8W-1" vertex="1">
          <mxGeometry y="330" width="199.04345703125017" height="30" as="geometry" />
        </mxCell>
        <mxCell id="2zF8VjNUCW6DVoFqIz8W-47" value="" style="shape=partialRectangle;connectable=0;fillColor=none;top=0;left=0;bottom=0;right=0;editable=1;overflow=hidden;whiteSpace=wrap;html=1;strokeColor=#788AA3;labelBackgroundColor=none;fontColor=#46495D;" parent="2zF8VjNUCW6DVoFqIz8W-46" vertex="1">
          <mxGeometry width="30" height="30" as="geometry">
            <mxRectangle width="30" height="30" as="alternateBounds" />
          </mxGeometry>
        </mxCell>
        <mxCell id="2zF8VjNUCW6DVoFqIz8W-48" value="total_time" style="shape=partialRectangle;connectable=0;fillColor=none;top=0;left=0;bottom=0;right=0;align=left;spacingLeft=6;overflow=hidden;whiteSpace=wrap;html=1;strokeColor=#788AA3;labelBackgroundColor=none;fontColor=#000000;" parent="2zF8VjNUCW6DVoFqIz8W-46" vertex="1">
          <mxGeometry x="30" width="169.04345703125017" height="30" as="geometry">
            <mxRectangle width="169.04345703125017" height="30" as="alternateBounds" />
          </mxGeometry>
        </mxCell>
        <mxCell id="2zF8VjNUCW6DVoFqIz8W-49" value="" style="shape=tableRow;horizontal=0;startSize=0;swimlaneHead=0;swimlaneBody=0;fillColor=none;collapsible=0;dropTarget=0;points=[[0,0.5],[1,0.5]];portConstraint=eastwest;top=0;left=0;right=0;bottom=0;labelBackgroundColor=none;strokeColor=#788AA3;fontColor=#46495D;" parent="2zF8VjNUCW6DVoFqIz8W-1" vertex="1">
          <mxGeometry y="360" width="199.04345703125017" height="30" as="geometry" />
        </mxCell>
        <mxCell id="2zF8VjNUCW6DVoFqIz8W-50" value="" style="shape=partialRectangle;connectable=0;fillColor=none;top=0;left=0;bottom=0;right=0;editable=1;overflow=hidden;whiteSpace=wrap;html=1;strokeColor=#788AA3;labelBackgroundColor=none;fontColor=#46495D;" parent="2zF8VjNUCW6DVoFqIz8W-49" vertex="1">
          <mxGeometry width="30" height="30" as="geometry">
            <mxRectangle width="30" height="30" as="alternateBounds" />
          </mxGeometry>
        </mxCell>
        <mxCell id="2zF8VjNUCW6DVoFqIz8W-51" value="&amp;nbsp; &amp;nbsp; &amp;nbsp; &amp;nbsp;preparation_time" style="shape=partialRectangle;connectable=0;fillColor=none;top=0;left=0;bottom=0;right=0;align=left;spacingLeft=6;overflow=hidden;whiteSpace=wrap;html=1;strokeColor=#788AA3;fontStyle=2;labelBackgroundColor=none;fontColor=#000000;" parent="2zF8VjNUCW6DVoFqIz8W-49" vertex="1">
          <mxGeometry x="30" width="169.04345703125017" height="30" as="geometry">
            <mxRectangle width="169.04345703125017" height="30" as="alternateBounds" />
          </mxGeometry>
        </mxCell>
        <mxCell id="2zF8VjNUCW6DVoFqIz8W-52" value="" style="shape=tableRow;horizontal=0;startSize=0;swimlaneHead=0;swimlaneBody=0;fillColor=none;collapsible=0;dropTarget=0;points=[[0,0.5],[1,0.5]];portConstraint=eastwest;top=0;left=0;right=0;bottom=0;labelBackgroundColor=none;strokeColor=#788AA3;fontColor=#46495D;" parent="2zF8VjNUCW6DVoFqIz8W-1" vertex="1">
          <mxGeometry y="390" width="199.04345703125017" height="29" as="geometry" />
        </mxCell>
        <mxCell id="2zF8VjNUCW6DVoFqIz8W-53" value="" style="shape=partialRectangle;connectable=0;fillColor=none;top=0;left=0;bottom=0;right=0;editable=1;overflow=hidden;whiteSpace=wrap;html=1;strokeColor=#788AA3;labelBackgroundColor=none;fontColor=#46495D;" parent="2zF8VjNUCW6DVoFqIz8W-52" vertex="1">
          <mxGeometry width="30" height="29" as="geometry">
            <mxRectangle width="30" height="29" as="alternateBounds" />
          </mxGeometry>
        </mxCell>
        <mxCell id="2zF8VjNUCW6DVoFqIz8W-54" value="&amp;nbsp; &amp;nbsp; &amp;nbsp; &amp;nbsp;execution_time" style="shape=partialRectangle;connectable=0;fillColor=none;top=0;left=0;bottom=0;right=0;align=left;spacingLeft=6;overflow=hidden;whiteSpace=wrap;html=1;strokeColor=#788AA3;fontStyle=2;labelBackgroundColor=none;fontColor=#000000;" parent="2zF8VjNUCW6DVoFqIz8W-52" vertex="1">
          <mxGeometry x="30" width="169.04345703125017" height="29" as="geometry">
            <mxRectangle width="169.04345703125017" height="29" as="alternateBounds" />
          </mxGeometry>
        </mxCell>
        <mxCell id="2zF8VjNUCW6DVoFqIz8W-95" value="" style="shape=tableRow;horizontal=0;startSize=0;swimlaneHead=0;swimlaneBody=0;fillColor=none;collapsible=0;dropTarget=0;points=[[0,0.5],[1,0.5]];portConstraint=eastwest;top=0;left=0;right=0;bottom=0;labelBackgroundColor=none;strokeColor=#788AA3;fontColor=#46495D;" parent="2zF8VjNUCW6DVoFqIz8W-1" vertex="1">
          <mxGeometry y="419" width="199.04345703125017" height="30" as="geometry" />
        </mxCell>
        <mxCell id="2zF8VjNUCW6DVoFqIz8W-96" value="" style="shape=partialRectangle;connectable=0;fillColor=none;top=0;left=0;bottom=0;right=0;editable=1;overflow=hidden;whiteSpace=wrap;html=1;strokeColor=#788AA3;labelBackgroundColor=none;fontColor=#46495D;" parent="2zF8VjNUCW6DVoFqIz8W-95" vertex="1">
          <mxGeometry width="30" height="30" as="geometry">
            <mxRectangle width="30" height="30" as="alternateBounds" />
          </mxGeometry>
        </mxCell>
        <mxCell id="2zF8VjNUCW6DVoFqIz8W-97" value="fat_grams_per_portion" style="shape=partialRectangle;connectable=0;fillColor=none;top=0;left=0;bottom=0;right=0;align=left;spacingLeft=6;overflow=hidden;whiteSpace=wrap;html=1;strokeColor=#788AA3;fontStyle=0;labelBackgroundColor=none;fontColor=#000000;" parent="2zF8VjNUCW6DVoFqIz8W-95" vertex="1">
          <mxGeometry x="30" width="169.04345703125017" height="30" as="geometry">
            <mxRectangle width="169.04345703125017" height="30" as="alternateBounds" />
          </mxGeometry>
        </mxCell>
        <mxCell id="2zF8VjNUCW6DVoFqIz8W-98" value="" style="shape=tableRow;horizontal=0;startSize=0;swimlaneHead=0;swimlaneBody=0;fillColor=none;collapsible=0;dropTarget=0;points=[[0,0.5],[1,0.5]];portConstraint=eastwest;top=0;left=0;right=0;bottom=0;labelBackgroundColor=none;strokeColor=#788AA3;fontColor=#46495D;" parent="2zF8VjNUCW6DVoFqIz8W-1" vertex="1">
          <mxGeometry y="449" width="199.04345703125017" height="30" as="geometry" />
        </mxCell>
        <mxCell id="2zF8VjNUCW6DVoFqIz8W-99" value="" style="shape=partialRectangle;connectable=0;fillColor=none;top=0;left=0;bottom=0;right=0;editable=1;overflow=hidden;whiteSpace=wrap;html=1;strokeColor=#788AA3;labelBackgroundColor=none;fontColor=#46495D;" parent="2zF8VjNUCW6DVoFqIz8W-98" vertex="1">
          <mxGeometry width="30" height="30" as="geometry">
            <mxRectangle width="30" height="30" as="alternateBounds" />
          </mxGeometry>
        </mxCell>
        <mxCell id="2zF8VjNUCW6DVoFqIz8W-100" value="curb_grams_per_portion" style="shape=partialRectangle;connectable=0;fillColor=none;top=0;left=0;bottom=0;right=0;align=left;spacingLeft=6;overflow=hidden;whiteSpace=wrap;html=1;strokeColor=#788AA3;fontStyle=0;labelBackgroundColor=none;fontColor=#000000;" parent="2zF8VjNUCW6DVoFqIz8W-98" vertex="1">
          <mxGeometry x="30" width="169.04345703125017" height="30" as="geometry">
            <mxRectangle width="169.04345703125017" height="30" as="alternateBounds" />
          </mxGeometry>
        </mxCell>
        <mxCell id="2zF8VjNUCW6DVoFqIz8W-101" value="" style="shape=tableRow;horizontal=0;startSize=0;swimlaneHead=0;swimlaneBody=0;fillColor=none;collapsible=0;dropTarget=0;points=[[0,0.5],[1,0.5]];portConstraint=eastwest;top=0;left=0;right=0;bottom=0;labelBackgroundColor=none;strokeColor=#788AA3;fontColor=#46495D;" parent="2zF8VjNUCW6DVoFqIz8W-1" vertex="1">
          <mxGeometry y="479" width="199.04345703125017" height="30" as="geometry" />
        </mxCell>
        <mxCell id="2zF8VjNUCW6DVoFqIz8W-102" value="" style="shape=partialRectangle;connectable=0;fillColor=none;top=0;left=0;bottom=0;right=0;editable=1;overflow=hidden;whiteSpace=wrap;html=1;strokeColor=#788AA3;labelBackgroundColor=none;fontColor=#46495D;" parent="2zF8VjNUCW6DVoFqIz8W-101" vertex="1">
          <mxGeometry width="30" height="30" as="geometry">
            <mxRectangle width="30" height="30" as="alternateBounds" />
          </mxGeometry>
        </mxCell>
        <mxCell id="2zF8VjNUCW6DVoFqIz8W-103" value="protein_grams_per_portion" style="shape=partialRectangle;connectable=0;fillColor=none;top=0;left=0;bottom=0;right=0;align=left;spacingLeft=6;overflow=hidden;whiteSpace=wrap;html=1;strokeColor=#788AA3;fontStyle=0;labelBackgroundColor=none;fontColor=#000000;" parent="2zF8VjNUCW6DVoFqIz8W-101" vertex="1">
          <mxGeometry x="30" width="169.04345703125017" height="30" as="geometry">
            <mxRectangle width="169.04345703125017" height="30" as="alternateBounds" />
          </mxGeometry>
        </mxCell>
        <mxCell id="2zF8VjNUCW6DVoFqIz8W-104" value="" style="shape=tableRow;horizontal=0;startSize=0;swimlaneHead=0;swimlaneBody=0;fillColor=none;collapsible=0;dropTarget=0;points=[[0,0.5],[1,0.5]];portConstraint=eastwest;top=0;left=0;right=0;bottom=0;labelBackgroundColor=none;strokeColor=#788AA3;fontColor=#46495D;" parent="2zF8VjNUCW6DVoFqIz8W-1" vertex="1">
          <mxGeometry y="509" width="199.04345703125017" height="30" as="geometry" />
        </mxCell>
        <mxCell id="2zF8VjNUCW6DVoFqIz8W-105" value="" style="shape=partialRectangle;connectable=0;fillColor=none;top=0;left=0;bottom=0;right=0;editable=1;overflow=hidden;whiteSpace=wrap;html=1;strokeColor=#788AA3;labelBackgroundColor=none;fontColor=#46495D;" parent="2zF8VjNUCW6DVoFqIz8W-104" vertex="1">
          <mxGeometry width="30" height="30" as="geometry">
            <mxRectangle width="30" height="30" as="alternateBounds" />
          </mxGeometry>
        </mxCell>
        <mxCell id="2zF8VjNUCW6DVoFqIz8W-106" value="kcal_per_portion" style="shape=partialRectangle;connectable=0;fillColor=none;top=0;left=0;bottom=0;right=0;align=left;spacingLeft=6;overflow=hidden;whiteSpace=wrap;html=1;strokeColor=#788AA3;fontStyle=0;labelBackgroundColor=none;fontColor=#000000;" parent="2zF8VjNUCW6DVoFqIz8W-104" vertex="1">
          <mxGeometry x="30" width="169.04345703125017" height="30" as="geometry">
            <mxRectangle width="169.04345703125017" height="30" as="alternateBounds" />
          </mxGeometry>
        </mxCell>
        <mxCell id="4TAAjnSzIqckUplBbA9e-1" style="shape=tableRow;horizontal=0;startSize=0;swimlaneHead=0;swimlaneBody=0;fillColor=none;collapsible=0;dropTarget=0;points=[[0,0.5],[1,0.5]];portConstraint=eastwest;top=0;left=0;right=0;bottom=0;labelBackgroundColor=none;strokeColor=#788AA3;fontColor=#46495D;" parent="2zF8VjNUCW6DVoFqIz8W-1" vertex="1">
          <mxGeometry y="539" width="199.04345703125017" height="30" as="geometry" />
        </mxCell>
        <mxCell id="4TAAjnSzIqckUplBbA9e-2" style="shape=partialRectangle;connectable=0;fillColor=none;top=0;left=0;bottom=0;right=0;editable=1;overflow=hidden;whiteSpace=wrap;html=1;strokeColor=#788AA3;labelBackgroundColor=none;fontColor=#46495D;" parent="4TAAjnSzIqckUplBbA9e-1" vertex="1">
          <mxGeometry width="30" height="30" as="geometry">
            <mxRectangle width="30" height="30" as="alternateBounds" />
          </mxGeometry>
        </mxCell>
        <mxCell id="4TAAjnSzIqckUplBbA9e-3" value="food_group_identity" style="shape=partialRectangle;connectable=0;fillColor=none;top=0;left=0;bottom=0;right=0;align=left;spacingLeft=6;overflow=hidden;whiteSpace=wrap;html=1;strokeColor=#788AA3;fontStyle=0;labelBackgroundColor=none;fontColor=#000000;" parent="4TAAjnSzIqckUplBbA9e-1" vertex="1">
          <mxGeometry x="30" width="169.04345703125017" height="30" as="geometry">
            <mxRectangle width="169.04345703125017" height="30" as="alternateBounds" />
          </mxGeometry>
        </mxCell>
        <mxCell id="2zF8VjNUCW6DVoFqIz8W-107" value="Topic" style="shape=table;startSize=30;container=1;collapsible=1;childLayout=tableLayout;fixedRows=1;rowLines=0;fontStyle=1;align=center;resizeLast=1;html=1;fillColor=#B2C9AB;strokeColor=#788AA3;labelBackgroundColor=none;fontColor=#000000;" parent="1" vertex="1">
          <mxGeometry x="575" y="358" width="184.52638003700645" height="90" as="geometry" />
        </mxCell>
        <mxCell id="2zF8VjNUCW6DVoFqIz8W-108" value="" style="shape=tableRow;horizontal=0;startSize=0;swimlaneHead=0;swimlaneBody=0;fillColor=none;collapsible=0;dropTarget=0;points=[[0,0.5],[1,0.5]];portConstraint=eastwest;top=0;left=0;right=0;bottom=1;labelBackgroundColor=none;strokeColor=#788AA3;fontColor=#000000;" parent="2zF8VjNUCW6DVoFqIz8W-107" vertex="1">
          <mxGeometry y="30" width="184.52638003700645" height="30" as="geometry" />
        </mxCell>
        <mxCell id="2zF8VjNUCW6DVoFqIz8W-109" value="&lt;span style=&quot;font-weight: normal;&quot;&gt;PK&lt;/span&gt;" style="shape=partialRectangle;connectable=0;fillColor=none;top=0;left=0;bottom=0;right=0;fontStyle=1;overflow=hidden;whiteSpace=wrap;html=1;labelBackgroundColor=none;strokeColor=#788AA3;fontColor=#000000;" parent="2zF8VjNUCW6DVoFqIz8W-108" vertex="1">
          <mxGeometry width="30" height="30" as="geometry">
            <mxRectangle width="30" height="30" as="alternateBounds" />
          </mxGeometry>
        </mxCell>
        <mxCell id="2zF8VjNUCW6DVoFqIz8W-110" value="topic_id" style="shape=partialRectangle;connectable=0;fillColor=none;top=0;left=0;bottom=0;right=0;align=left;spacingLeft=6;fontStyle=4;overflow=hidden;whiteSpace=wrap;html=1;labelBackgroundColor=none;strokeColor=#788AA3;fontColor=#000000;" parent="2zF8VjNUCW6DVoFqIz8W-108" vertex="1">
          <mxGeometry x="30" width="154.52638003700645" height="30" as="geometry">
            <mxRectangle width="154.52638003700645" height="30" as="alternateBounds" />
          </mxGeometry>
        </mxCell>
        <mxCell id="2zF8VjNUCW6DVoFqIz8W-111" value="" style="shape=tableRow;horizontal=0;startSize=0;swimlaneHead=0;swimlaneBody=0;fillColor=none;collapsible=0;dropTarget=0;points=[[0,0.5],[1,0.5]];portConstraint=eastwest;top=0;left=0;right=0;bottom=0;labelBackgroundColor=none;strokeColor=#788AA3;fontColor=#000000;" parent="2zF8VjNUCW6DVoFqIz8W-107" vertex="1">
          <mxGeometry y="60" width="184.52638003700645" height="30" as="geometry" />
        </mxCell>
        <mxCell id="2zF8VjNUCW6DVoFqIz8W-112" value="" style="shape=partialRectangle;connectable=0;fillColor=none;top=0;left=0;bottom=0;right=0;editable=1;overflow=hidden;whiteSpace=wrap;html=1;labelBackgroundColor=none;strokeColor=#788AA3;fontColor=#000000;" parent="2zF8VjNUCW6DVoFqIz8W-111" vertex="1">
          <mxGeometry width="30" height="30" as="geometry">
            <mxRectangle width="30" height="30" as="alternateBounds" />
          </mxGeometry>
        </mxCell>
        <mxCell id="2zF8VjNUCW6DVoFqIz8W-113" value="description" style="shape=partialRectangle;connectable=0;fillColor=none;top=0;left=0;bottom=0;right=0;align=left;spacingLeft=6;overflow=hidden;whiteSpace=wrap;html=1;labelBackgroundColor=none;strokeColor=#788AA3;fontColor=#000000;" parent="2zF8VjNUCW6DVoFqIz8W-111" vertex="1">
          <mxGeometry x="30" width="154.52638003700645" height="30" as="geometry">
            <mxRectangle width="154.52638003700645" height="30" as="alternateBounds" />
          </mxGeometry>
        </mxCell>
        <mxCell id="2zF8VjNUCW6DVoFqIz8W-120" value="Ingredient" style="shape=table;startSize=30;container=1;collapsible=1;childLayout=tableLayout;fixedRows=1;rowLines=0;fontStyle=1;align=center;resizeLast=1;html=1;fillColor=#B2C9AB;strokeColor=#788AA3;labelBackgroundColor=none;fontColor=#000000;" parent="1" vertex="1">
          <mxGeometry x="89" y="1334" width="180" height="150" as="geometry" />
        </mxCell>
        <mxCell id="2zF8VjNUCW6DVoFqIz8W-121" value="" style="shape=tableRow;horizontal=0;startSize=0;swimlaneHead=0;swimlaneBody=0;fillColor=none;collapsible=0;dropTarget=0;points=[[0,0.5],[1,0.5]];portConstraint=eastwest;top=0;left=0;right=0;bottom=1;labelBackgroundColor=none;strokeColor=#788AA3;fontColor=#000000;" parent="2zF8VjNUCW6DVoFqIz8W-120" vertex="1">
          <mxGeometry y="30" width="180" height="30" as="geometry" />
        </mxCell>
        <mxCell id="2zF8VjNUCW6DVoFqIz8W-122" value="PK" style="shape=partialRectangle;connectable=0;fillColor=none;top=0;left=0;bottom=0;right=0;fontStyle=0;overflow=hidden;whiteSpace=wrap;html=1;labelBackgroundColor=none;strokeColor=#788AA3;fontColor=#000000;" parent="2zF8VjNUCW6DVoFqIz8W-121" vertex="1">
          <mxGeometry width="30" height="30" as="geometry">
            <mxRectangle width="30" height="30" as="alternateBounds" />
          </mxGeometry>
        </mxCell>
        <mxCell id="2zF8VjNUCW6DVoFqIz8W-123" value="ingredient_id" style="shape=partialRectangle;connectable=0;fillColor=none;top=0;left=0;bottom=0;right=0;align=left;spacingLeft=6;fontStyle=4;overflow=hidden;whiteSpace=wrap;html=1;labelBackgroundColor=none;strokeColor=#788AA3;fontColor=#000000;" parent="2zF8VjNUCW6DVoFqIz8W-121" vertex="1">
          <mxGeometry x="30" width="150" height="30" as="geometry">
            <mxRectangle width="150" height="30" as="alternateBounds" />
          </mxGeometry>
        </mxCell>
        <mxCell id="2zF8VjNUCW6DVoFqIz8W-124" value="" style="shape=tableRow;horizontal=0;startSize=0;swimlaneHead=0;swimlaneBody=0;fillColor=none;collapsible=0;dropTarget=0;points=[[0,0.5],[1,0.5]];portConstraint=eastwest;top=0;left=0;right=0;bottom=0;labelBackgroundColor=none;strokeColor=#788AA3;fontColor=#000000;" parent="2zF8VjNUCW6DVoFqIz8W-120" vertex="1">
          <mxGeometry y="60" width="180" height="30" as="geometry" />
        </mxCell>
        <mxCell id="2zF8VjNUCW6DVoFqIz8W-125" value="" style="shape=partialRectangle;connectable=0;fillColor=none;top=0;left=0;bottom=0;right=0;editable=1;overflow=hidden;whiteSpace=wrap;html=1;labelBackgroundColor=none;strokeColor=#788AA3;fontColor=#000000;" parent="2zF8VjNUCW6DVoFqIz8W-124" vertex="1">
          <mxGeometry width="30" height="30" as="geometry">
            <mxRectangle width="30" height="30" as="alternateBounds" />
          </mxGeometry>
        </mxCell>
        <mxCell id="2zF8VjNUCW6DVoFqIz8W-126" value="name" style="shape=partialRectangle;connectable=0;fillColor=none;top=0;left=0;bottom=0;right=0;align=left;spacingLeft=6;overflow=hidden;whiteSpace=wrap;html=1;labelBackgroundColor=none;strokeColor=#788AA3;fontColor=#000000;" parent="2zF8VjNUCW6DVoFqIz8W-124" vertex="1">
          <mxGeometry x="30" width="150" height="30" as="geometry">
            <mxRectangle width="150" height="30" as="alternateBounds" />
          </mxGeometry>
        </mxCell>
        <mxCell id="2zF8VjNUCW6DVoFqIz8W-127" value="" style="shape=tableRow;horizontal=0;startSize=0;swimlaneHead=0;swimlaneBody=0;fillColor=none;collapsible=0;dropTarget=0;points=[[0,0.5],[1,0.5]];portConstraint=eastwest;top=0;left=0;right=0;bottom=0;labelBackgroundColor=none;strokeColor=#788AA3;fontColor=#000000;" parent="2zF8VjNUCW6DVoFqIz8W-120" vertex="1">
          <mxGeometry y="90" width="180" height="30" as="geometry" />
        </mxCell>
        <mxCell id="2zF8VjNUCW6DVoFqIz8W-128" value="" style="shape=partialRectangle;connectable=0;fillColor=none;top=0;left=0;bottom=0;right=0;editable=1;overflow=hidden;whiteSpace=wrap;html=1;labelBackgroundColor=none;strokeColor=#788AA3;fontColor=#000000;" parent="2zF8VjNUCW6DVoFqIz8W-127" vertex="1">
          <mxGeometry width="30" height="30" as="geometry">
            <mxRectangle width="30" height="30" as="alternateBounds" />
          </mxGeometry>
        </mxCell>
        <mxCell id="2zF8VjNUCW6DVoFqIz8W-129" value="kcal_per_100" style="shape=partialRectangle;connectable=0;fillColor=none;top=0;left=0;bottom=0;right=0;align=left;spacingLeft=6;overflow=hidden;whiteSpace=wrap;html=1;labelBackgroundColor=none;strokeColor=#788AA3;fontColor=#000000;" parent="2zF8VjNUCW6DVoFqIz8W-127" vertex="1">
          <mxGeometry x="30" width="150" height="30" as="geometry">
            <mxRectangle width="150" height="30" as="alternateBounds" />
          </mxGeometry>
        </mxCell>
        <mxCell id="4TAAjnSzIqckUplBbA9e-7" style="shape=tableRow;horizontal=0;startSize=0;swimlaneHead=0;swimlaneBody=0;fillColor=none;collapsible=0;dropTarget=0;points=[[0,0.5],[1,0.5]];portConstraint=eastwest;top=0;left=0;right=0;bottom=0;labelBackgroundColor=none;strokeColor=#788AA3;fontColor=#000000;" parent="2zF8VjNUCW6DVoFqIz8W-120" vertex="1">
          <mxGeometry y="120" width="180" height="30" as="geometry" />
        </mxCell>
        <mxCell id="4TAAjnSzIqckUplBbA9e-8" style="shape=partialRectangle;connectable=0;fillColor=none;top=0;left=0;bottom=0;right=0;editable=1;overflow=hidden;whiteSpace=wrap;html=1;labelBackgroundColor=none;strokeColor=#788AA3;fontColor=#000000;" parent="4TAAjnSzIqckUplBbA9e-7" vertex="1">
          <mxGeometry width="30" height="30" as="geometry">
            <mxRectangle width="30" height="30" as="alternateBounds" />
          </mxGeometry>
        </mxCell>
        <mxCell id="4TAAjnSzIqckUplBbA9e-9" value="avg_grams" style="shape=partialRectangle;connectable=0;fillColor=none;top=0;left=0;bottom=0;right=0;align=left;spacingLeft=6;overflow=hidden;whiteSpace=wrap;html=1;labelBackgroundColor=none;strokeColor=#788AA3;fontColor=#000000;" parent="4TAAjnSzIqckUplBbA9e-7" vertex="1">
          <mxGeometry x="30" width="150" height="30" as="geometry">
            <mxRectangle width="150" height="30" as="alternateBounds" />
          </mxGeometry>
        </mxCell>
        <mxCell id="2zF8VjNUCW6DVoFqIz8W-136" value="Nationality" style="shape=table;startSize=30;container=1;collapsible=1;childLayout=tableLayout;fixedRows=1;rowLines=0;fontStyle=1;align=center;resizeLast=1;html=1;fillColor=#B2C9AB;strokeColor=#788AA3;labelBackgroundColor=none;fontColor=#000000;" parent="1" vertex="1">
          <mxGeometry x="1217" y="501" width="180" height="90" as="geometry" />
        </mxCell>
        <mxCell id="2zF8VjNUCW6DVoFqIz8W-137" value="" style="shape=tableRow;horizontal=0;startSize=0;swimlaneHead=0;swimlaneBody=0;fillColor=none;collapsible=0;dropTarget=0;points=[[0,0.5],[1,0.5]];portConstraint=eastwest;top=0;left=0;right=0;bottom=1;labelBackgroundColor=none;strokeColor=#788AA3;fontColor=#000000;" parent="2zF8VjNUCW6DVoFqIz8W-136" vertex="1">
          <mxGeometry y="30" width="180" height="30" as="geometry" />
        </mxCell>
        <mxCell id="2zF8VjNUCW6DVoFqIz8W-138" value="PK" style="shape=partialRectangle;connectable=0;fillColor=none;top=0;left=0;bottom=0;right=0;fontStyle=0;overflow=hidden;whiteSpace=wrap;html=1;labelBackgroundColor=none;strokeColor=#788AA3;fontColor=#000000;" parent="2zF8VjNUCW6DVoFqIz8W-137" vertex="1">
          <mxGeometry width="30" height="30" as="geometry">
            <mxRectangle width="30" height="30" as="alternateBounds" />
          </mxGeometry>
        </mxCell>
        <mxCell id="2zF8VjNUCW6DVoFqIz8W-139" value="nationality_id" style="shape=partialRectangle;connectable=0;fillColor=none;top=0;left=0;bottom=0;right=0;align=left;spacingLeft=6;fontStyle=4;overflow=hidden;whiteSpace=wrap;html=1;labelBackgroundColor=none;strokeColor=#788AA3;fontColor=#000000;" parent="2zF8VjNUCW6DVoFqIz8W-137" vertex="1">
          <mxGeometry x="30" width="150" height="30" as="geometry">
            <mxRectangle width="150" height="30" as="alternateBounds" />
          </mxGeometry>
        </mxCell>
        <mxCell id="2zF8VjNUCW6DVoFqIz8W-140" value="" style="shape=tableRow;horizontal=0;startSize=0;swimlaneHead=0;swimlaneBody=0;fillColor=none;collapsible=0;dropTarget=0;points=[[0,0.5],[1,0.5]];portConstraint=eastwest;top=0;left=0;right=0;bottom=0;labelBackgroundColor=none;strokeColor=#788AA3;fontColor=#000000;" parent="2zF8VjNUCW6DVoFqIz8W-136" vertex="1">
          <mxGeometry y="60" width="180" height="30" as="geometry" />
        </mxCell>
        <mxCell id="2zF8VjNUCW6DVoFqIz8W-141" value="" style="shape=partialRectangle;connectable=0;fillColor=none;top=0;left=0;bottom=0;right=0;editable=1;overflow=hidden;whiteSpace=wrap;html=1;labelBackgroundColor=none;strokeColor=#788AA3;fontColor=#000000;" parent="2zF8VjNUCW6DVoFqIz8W-140" vertex="1">
          <mxGeometry width="30" height="30" as="geometry">
            <mxRectangle width="30" height="30" as="alternateBounds" />
          </mxGeometry>
        </mxCell>
        <mxCell id="2zF8VjNUCW6DVoFqIz8W-142" value="name" style="shape=partialRectangle;connectable=0;fillColor=none;top=0;left=0;bottom=0;right=0;align=left;spacingLeft=6;overflow=hidden;whiteSpace=wrap;html=1;labelBackgroundColor=none;strokeColor=#788AA3;fontColor=#000000;" parent="2zF8VjNUCW6DVoFqIz8W-140" vertex="1">
          <mxGeometry x="30" width="150" height="30" as="geometry">
            <mxRectangle width="150" height="30" as="alternateBounds" />
          </mxGeometry>
        </mxCell>
        <mxCell id="2zF8VjNUCW6DVoFqIz8W-149" value="Equipment" style="shape=table;startSize=30;container=1;collapsible=1;childLayout=tableLayout;fixedRows=1;rowLines=0;fontStyle=1;align=center;resizeLast=1;html=1;fillColor=#B2C9AB;strokeColor=#788AA3;labelBackgroundColor=none;fontColor=#000000;" parent="1" vertex="1">
          <mxGeometry x="575" y="486" width="180" height="120" as="geometry" />
        </mxCell>
        <mxCell id="2zF8VjNUCW6DVoFqIz8W-150" value="" style="shape=tableRow;horizontal=0;startSize=0;swimlaneHead=0;swimlaneBody=0;fillColor=none;collapsible=0;dropTarget=0;points=[[0,0.5],[1,0.5]];portConstraint=eastwest;top=0;left=0;right=0;bottom=1;fontStyle=1;labelBackgroundColor=none;strokeColor=#788AA3;fontColor=#000000;" parent="2zF8VjNUCW6DVoFqIz8W-149" vertex="1">
          <mxGeometry y="30" width="180" height="30" as="geometry" />
        </mxCell>
        <mxCell id="2zF8VjNUCW6DVoFqIz8W-151" value="PK" style="shape=partialRectangle;connectable=0;fillColor=none;top=0;left=0;bottom=0;right=0;fontStyle=0;overflow=hidden;whiteSpace=wrap;html=1;labelBackgroundColor=none;strokeColor=#788AA3;fontColor=#000000;" parent="2zF8VjNUCW6DVoFqIz8W-150" vertex="1">
          <mxGeometry width="30" height="30" as="geometry">
            <mxRectangle width="30" height="30" as="alternateBounds" />
          </mxGeometry>
        </mxCell>
        <mxCell id="2zF8VjNUCW6DVoFqIz8W-152" value="equipment_id" style="shape=partialRectangle;connectable=0;fillColor=none;top=0;left=0;bottom=0;right=0;align=left;spacingLeft=6;fontStyle=4;overflow=hidden;whiteSpace=wrap;html=1;labelBackgroundColor=none;strokeColor=#788AA3;fontColor=#000000;" parent="2zF8VjNUCW6DVoFqIz8W-150" vertex="1">
          <mxGeometry x="30" width="150" height="30" as="geometry">
            <mxRectangle width="150" height="30" as="alternateBounds" />
          </mxGeometry>
        </mxCell>
        <mxCell id="2zF8VjNUCW6DVoFqIz8W-153" value="" style="shape=tableRow;horizontal=0;startSize=0;swimlaneHead=0;swimlaneBody=0;fillColor=none;collapsible=0;dropTarget=0;points=[[0,0.5],[1,0.5]];portConstraint=eastwest;top=0;left=0;right=0;bottom=0;labelBackgroundColor=none;strokeColor=#788AA3;fontColor=#000000;" parent="2zF8VjNUCW6DVoFqIz8W-149" vertex="1">
          <mxGeometry y="60" width="180" height="30" as="geometry" />
        </mxCell>
        <mxCell id="2zF8VjNUCW6DVoFqIz8W-154" value="" style="shape=partialRectangle;connectable=0;fillColor=none;top=0;left=0;bottom=0;right=0;editable=1;overflow=hidden;whiteSpace=wrap;html=1;labelBackgroundColor=none;strokeColor=#788AA3;fontColor=#000000;" parent="2zF8VjNUCW6DVoFqIz8W-153" vertex="1">
          <mxGeometry width="30" height="30" as="geometry">
            <mxRectangle width="30" height="30" as="alternateBounds" />
          </mxGeometry>
        </mxCell>
        <mxCell id="2zF8VjNUCW6DVoFqIz8W-155" value="name" style="shape=partialRectangle;connectable=0;fillColor=none;top=0;left=0;bottom=0;right=0;align=left;spacingLeft=6;overflow=hidden;whiteSpace=wrap;html=1;labelBackgroundColor=none;strokeColor=#788AA3;fontColor=#000000;" parent="2zF8VjNUCW6DVoFqIz8W-153" vertex="1">
          <mxGeometry x="30" width="150" height="30" as="geometry">
            <mxRectangle width="150" height="30" as="alternateBounds" />
          </mxGeometry>
        </mxCell>
        <mxCell id="2zF8VjNUCW6DVoFqIz8W-156" value="" style="shape=tableRow;horizontal=0;startSize=0;swimlaneHead=0;swimlaneBody=0;fillColor=none;collapsible=0;dropTarget=0;points=[[0,0.5],[1,0.5]];portConstraint=eastwest;top=0;left=0;right=0;bottom=0;labelBackgroundColor=none;strokeColor=#788AA3;fontColor=#000000;" parent="2zF8VjNUCW6DVoFqIz8W-149" vertex="1">
          <mxGeometry y="90" width="180" height="30" as="geometry" />
        </mxCell>
        <mxCell id="2zF8VjNUCW6DVoFqIz8W-157" value="" style="shape=partialRectangle;connectable=0;fillColor=none;top=0;left=0;bottom=0;right=0;editable=1;overflow=hidden;whiteSpace=wrap;html=1;labelBackgroundColor=none;strokeColor=#788AA3;fontColor=#000000;" parent="2zF8VjNUCW6DVoFqIz8W-156" vertex="1">
          <mxGeometry width="30" height="30" as="geometry">
            <mxRectangle width="30" height="30" as="alternateBounds" />
          </mxGeometry>
        </mxCell>
        <mxCell id="2zF8VjNUCW6DVoFqIz8W-158" value="manual" style="shape=partialRectangle;connectable=0;fillColor=none;top=0;left=0;bottom=0;right=0;align=left;spacingLeft=6;overflow=hidden;whiteSpace=wrap;html=1;labelBackgroundColor=none;strokeColor=#788AA3;fontColor=#000000;" parent="2zF8VjNUCW6DVoFqIz8W-156" vertex="1">
          <mxGeometry x="30" width="150" height="30" as="geometry">
            <mxRectangle width="150" height="30" as="alternateBounds" />
          </mxGeometry>
        </mxCell>
        <mxCell id="2zF8VjNUCW6DVoFqIz8W-162" value="Food_Group" style="shape=table;startSize=30;container=1;collapsible=1;childLayout=tableLayout;fixedRows=1;rowLines=0;fontStyle=1;align=center;resizeLast=1;html=1;fillColor=#B2C9AB;strokeColor=#788AA3;labelBackgroundColor=none;fontColor=#000000;" parent="1" vertex="1">
          <mxGeometry x="623" y="1329" width="180" height="150" as="geometry" />
        </mxCell>
        <mxCell id="2zF8VjNUCW6DVoFqIz8W-163" value="" style="shape=tableRow;horizontal=0;startSize=0;swimlaneHead=0;swimlaneBody=0;fillColor=none;collapsible=0;dropTarget=0;points=[[0,0.5],[1,0.5]];portConstraint=eastwest;top=0;left=0;right=0;bottom=1;labelBackgroundColor=none;strokeColor=#788AA3;fontColor=#000000;" parent="2zF8VjNUCW6DVoFqIz8W-162" vertex="1">
          <mxGeometry y="30" width="180" height="30" as="geometry" />
        </mxCell>
        <mxCell id="2zF8VjNUCW6DVoFqIz8W-164" value="PK" style="shape=partialRectangle;connectable=0;fillColor=none;top=0;left=0;bottom=0;right=0;fontStyle=0;overflow=hidden;whiteSpace=wrap;html=1;labelBackgroundColor=none;strokeColor=#788AA3;fontColor=#000000;" parent="2zF8VjNUCW6DVoFqIz8W-163" vertex="1">
          <mxGeometry width="30" height="30" as="geometry">
            <mxRectangle width="30" height="30" as="alternateBounds" />
          </mxGeometry>
        </mxCell>
        <mxCell id="2zF8VjNUCW6DVoFqIz8W-165" value="food_group_id" style="shape=partialRectangle;connectable=0;fillColor=none;top=0;left=0;bottom=0;right=0;align=left;spacingLeft=6;fontStyle=4;overflow=hidden;whiteSpace=wrap;html=1;labelBackgroundColor=none;strokeColor=#788AA3;fontColor=#000000;" parent="2zF8VjNUCW6DVoFqIz8W-163" vertex="1">
          <mxGeometry x="30" width="150" height="30" as="geometry">
            <mxRectangle width="150" height="30" as="alternateBounds" />
          </mxGeometry>
        </mxCell>
        <mxCell id="2zF8VjNUCW6DVoFqIz8W-166" value="" style="shape=tableRow;horizontal=0;startSize=0;swimlaneHead=0;swimlaneBody=0;fillColor=none;collapsible=0;dropTarget=0;points=[[0,0.5],[1,0.5]];portConstraint=eastwest;top=0;left=0;right=0;bottom=0;labelBackgroundColor=none;strokeColor=#788AA3;fontColor=#000000;" parent="2zF8VjNUCW6DVoFqIz8W-162" vertex="1">
          <mxGeometry y="60" width="180" height="30" as="geometry" />
        </mxCell>
        <mxCell id="2zF8VjNUCW6DVoFqIz8W-167" value="" style="shape=partialRectangle;connectable=0;fillColor=none;top=0;left=0;bottom=0;right=0;editable=1;overflow=hidden;whiteSpace=wrap;html=1;labelBackgroundColor=none;strokeColor=#788AA3;fontColor=#000000;" parent="2zF8VjNUCW6DVoFqIz8W-166" vertex="1">
          <mxGeometry width="30" height="30" as="geometry">
            <mxRectangle width="30" height="30" as="alternateBounds" />
          </mxGeometry>
        </mxCell>
        <mxCell id="2zF8VjNUCW6DVoFqIz8W-168" value="name" style="shape=partialRectangle;connectable=0;fillColor=none;top=0;left=0;bottom=0;right=0;align=left;spacingLeft=6;overflow=hidden;whiteSpace=wrap;html=1;labelBackgroundColor=none;strokeColor=#788AA3;fontColor=#000000;" parent="2zF8VjNUCW6DVoFqIz8W-166" vertex="1">
          <mxGeometry x="30" width="150" height="30" as="geometry">
            <mxRectangle width="150" height="30" as="alternateBounds" />
          </mxGeometry>
        </mxCell>
        <mxCell id="2zF8VjNUCW6DVoFqIz8W-169" value="" style="shape=tableRow;horizontal=0;startSize=0;swimlaneHead=0;swimlaneBody=0;fillColor=none;collapsible=0;dropTarget=0;points=[[0,0.5],[1,0.5]];portConstraint=eastwest;top=0;left=0;right=0;bottom=0;labelBackgroundColor=none;strokeColor=#788AA3;fontColor=#000000;" parent="2zF8VjNUCW6DVoFqIz8W-162" vertex="1">
          <mxGeometry y="90" width="180" height="30" as="geometry" />
        </mxCell>
        <mxCell id="2zF8VjNUCW6DVoFqIz8W-170" value="" style="shape=partialRectangle;connectable=0;fillColor=none;top=0;left=0;bottom=0;right=0;editable=1;overflow=hidden;whiteSpace=wrap;html=1;labelBackgroundColor=none;strokeColor=#788AA3;fontColor=#000000;" parent="2zF8VjNUCW6DVoFqIz8W-169" vertex="1">
          <mxGeometry width="30" height="30" as="geometry">
            <mxRectangle width="30" height="30" as="alternateBounds" />
          </mxGeometry>
        </mxCell>
        <mxCell id="2zF8VjNUCW6DVoFqIz8W-171" value="description" style="shape=partialRectangle;connectable=0;fillColor=none;top=0;left=0;bottom=0;right=0;align=left;spacingLeft=6;overflow=hidden;whiteSpace=wrap;html=1;labelBackgroundColor=none;strokeColor=#788AA3;fontColor=#000000;" parent="2zF8VjNUCW6DVoFqIz8W-169" vertex="1">
          <mxGeometry x="30" width="150" height="30" as="geometry">
            <mxRectangle width="150" height="30" as="alternateBounds" />
          </mxGeometry>
        </mxCell>
        <mxCell id="4TAAjnSzIqckUplBbA9e-4" style="shape=tableRow;horizontal=0;startSize=0;swimlaneHead=0;swimlaneBody=0;fillColor=none;collapsible=0;dropTarget=0;points=[[0,0.5],[1,0.5]];portConstraint=eastwest;top=0;left=0;right=0;bottom=0;labelBackgroundColor=none;strokeColor=#788AA3;fontColor=#000000;" parent="2zF8VjNUCW6DVoFqIz8W-162" vertex="1">
          <mxGeometry y="120" width="180" height="30" as="geometry" />
        </mxCell>
        <mxCell id="4TAAjnSzIqckUplBbA9e-5" style="shape=partialRectangle;connectable=0;fillColor=none;top=0;left=0;bottom=0;right=0;editable=1;overflow=hidden;whiteSpace=wrap;html=1;labelBackgroundColor=none;strokeColor=#788AA3;fontColor=#000000;" parent="4TAAjnSzIqckUplBbA9e-4" vertex="1">
          <mxGeometry width="30" height="30" as="geometry">
            <mxRectangle width="30" height="30" as="alternateBounds" />
          </mxGeometry>
        </mxCell>
        <mxCell id="4TAAjnSzIqckUplBbA9e-6" value="group_identity" style="shape=partialRectangle;connectable=0;fillColor=none;top=0;left=0;bottom=0;right=0;align=left;spacingLeft=6;overflow=hidden;whiteSpace=wrap;html=1;labelBackgroundColor=none;strokeColor=#788AA3;fontColor=#000000;" parent="4TAAjnSzIqckUplBbA9e-4" vertex="1">
          <mxGeometry x="30" width="150" height="30" as="geometry">
            <mxRectangle width="150" height="30" as="alternateBounds" />
          </mxGeometry>
        </mxCell>
        <mxCell id="2zF8VjNUCW6DVoFqIz8W-175" value="Image" style="shape=table;startSize=30;container=1;collapsible=1;childLayout=tableLayout;fixedRows=1;rowLines=0;fontStyle=1;align=center;resizeLast=1;html=1;fillColor=#B2C9AB;strokeColor=#788AA3;labelBackgroundColor=none;fontColor=#000000;" parent="1" vertex="1">
          <mxGeometry x="937" y="946" width="234" height="129" as="geometry" />
        </mxCell>
        <mxCell id="2zF8VjNUCW6DVoFqIz8W-176" value="" style="shape=tableRow;horizontal=0;startSize=0;swimlaneHead=0;swimlaneBody=0;fillColor=none;collapsible=0;dropTarget=0;points=[[0,0.5],[1,0.5]];portConstraint=eastwest;top=0;left=0;right=0;bottom=1;labelBackgroundColor=none;strokeColor=#788AA3;fontColor=#000000;" parent="2zF8VjNUCW6DVoFqIz8W-175" vertex="1">
          <mxGeometry y="30" width="234" height="30" as="geometry" />
        </mxCell>
        <mxCell id="2zF8VjNUCW6DVoFqIz8W-177" value="PK" style="shape=partialRectangle;connectable=0;fillColor=none;top=0;left=0;bottom=0;right=0;fontStyle=0;overflow=hidden;whiteSpace=wrap;html=1;labelBackgroundColor=none;strokeColor=#788AA3;fontColor=#000000;" parent="2zF8VjNUCW6DVoFqIz8W-176" vertex="1">
          <mxGeometry width="30" height="30" as="geometry">
            <mxRectangle width="30" height="30" as="alternateBounds" />
          </mxGeometry>
        </mxCell>
        <mxCell id="2zF8VjNUCW6DVoFqIz8W-178" value="image_id" style="shape=partialRectangle;connectable=0;fillColor=none;top=0;left=0;bottom=0;right=0;align=left;spacingLeft=6;fontStyle=4;overflow=hidden;whiteSpace=wrap;html=1;labelBackgroundColor=none;strokeColor=#788AA3;fontColor=#000000;" parent="2zF8VjNUCW6DVoFqIz8W-176" vertex="1">
          <mxGeometry x="30" width="204" height="30" as="geometry">
            <mxRectangle width="204" height="30" as="alternateBounds" />
          </mxGeometry>
        </mxCell>
        <mxCell id="2zF8VjNUCW6DVoFqIz8W-179" value="" style="shape=tableRow;horizontal=0;startSize=0;swimlaneHead=0;swimlaneBody=0;fillColor=none;collapsible=0;dropTarget=0;points=[[0,0.5],[1,0.5]];portConstraint=eastwest;top=0;left=0;right=0;bottom=0;labelBackgroundColor=none;strokeColor=#788AA3;fontColor=#000000;" parent="2zF8VjNUCW6DVoFqIz8W-175" vertex="1">
          <mxGeometry y="60" width="234" height="30" as="geometry" />
        </mxCell>
        <mxCell id="2zF8VjNUCW6DVoFqIz8W-180" value="" style="shape=partialRectangle;connectable=0;fillColor=none;top=0;left=0;bottom=0;right=0;editable=1;overflow=hidden;whiteSpace=wrap;html=1;labelBackgroundColor=none;strokeColor=#788AA3;fontColor=#000000;" parent="2zF8VjNUCW6DVoFqIz8W-179" vertex="1">
          <mxGeometry width="30" height="30" as="geometry">
            <mxRectangle width="30" height="30" as="alternateBounds" />
          </mxGeometry>
        </mxCell>
        <mxCell id="2zF8VjNUCW6DVoFqIz8W-181" value="image_url" style="shape=partialRectangle;connectable=0;fillColor=none;top=0;left=0;bottom=0;right=0;align=left;spacingLeft=6;overflow=hidden;whiteSpace=wrap;html=1;labelBackgroundColor=none;strokeColor=#788AA3;fontColor=#000000;" parent="2zF8VjNUCW6DVoFqIz8W-179" vertex="1">
          <mxGeometry x="30" width="204" height="30" as="geometry">
            <mxRectangle width="204" height="30" as="alternateBounds" />
          </mxGeometry>
        </mxCell>
        <mxCell id="mR3RYauKtjzumqwkYDXa-4" style="shape=tableRow;horizontal=0;startSize=0;swimlaneHead=0;swimlaneBody=0;fillColor=none;collapsible=0;dropTarget=0;points=[[0,0.5],[1,0.5]];portConstraint=eastwest;top=0;left=0;right=0;bottom=0;labelBackgroundColor=none;strokeColor=#788AA3;fontColor=#000000;" parent="2zF8VjNUCW6DVoFqIz8W-175" vertex="1">
          <mxGeometry y="90" width="234" height="30" as="geometry" />
        </mxCell>
        <mxCell id="mR3RYauKtjzumqwkYDXa-5" style="shape=partialRectangle;connectable=0;fillColor=none;top=0;left=0;bottom=0;right=0;editable=1;overflow=hidden;whiteSpace=wrap;html=1;labelBackgroundColor=none;strokeColor=#788AA3;fontColor=#000000;" parent="mR3RYauKtjzumqwkYDXa-4" vertex="1">
          <mxGeometry width="30" height="30" as="geometry">
            <mxRectangle width="30" height="30" as="alternateBounds" />
          </mxGeometry>
        </mxCell>
        <mxCell id="mR3RYauKtjzumqwkYDXa-6" value="description" style="shape=partialRectangle;connectable=0;fillColor=none;top=0;left=0;bottom=0;right=0;align=left;spacingLeft=6;overflow=hidden;whiteSpace=wrap;html=1;labelBackgroundColor=none;strokeColor=#788AA3;fontColor=#000000;" parent="mR3RYauKtjzumqwkYDXa-4" vertex="1">
          <mxGeometry x="30" width="204" height="30" as="geometry">
            <mxRectangle width="204" height="30" as="alternateBounds" />
          </mxGeometry>
        </mxCell>
        <mxCell id="2zF8VjNUCW6DVoFqIz8W-188" value="Cook" style="shape=table;startSize=30;container=1;collapsible=1;childLayout=tableLayout;fixedRows=1;rowLines=0;fontStyle=1;align=center;resizeLast=1;html=1;fillColor=#B2C9AB;strokeColor=#788AA3;labelBackgroundColor=none;fontColor=#000000;" parent="1" vertex="1">
          <mxGeometry x="1641" y="1173" width="180" height="360" as="geometry" />
        </mxCell>
        <mxCell id="2zF8VjNUCW6DVoFqIz8W-189" value="" style="shape=tableRow;horizontal=0;startSize=0;swimlaneHead=0;swimlaneBody=0;fillColor=none;collapsible=0;dropTarget=0;points=[[0,0.5],[1,0.5]];portConstraint=eastwest;top=0;left=0;right=0;bottom=1;fontStyle=1;labelBackgroundColor=none;strokeColor=#788AA3;fontColor=#000000;" parent="2zF8VjNUCW6DVoFqIz8W-188" vertex="1">
          <mxGeometry y="30" width="180" height="30" as="geometry" />
        </mxCell>
        <mxCell id="2zF8VjNUCW6DVoFqIz8W-190" value="PK" style="shape=partialRectangle;connectable=0;fillColor=none;top=0;left=0;bottom=0;right=0;fontStyle=0;overflow=hidden;whiteSpace=wrap;html=1;labelBackgroundColor=none;strokeColor=#788AA3;fontColor=#000000;" parent="2zF8VjNUCW6DVoFqIz8W-189" vertex="1">
          <mxGeometry width="30" height="30" as="geometry">
            <mxRectangle width="30" height="30" as="alternateBounds" />
          </mxGeometry>
        </mxCell>
        <mxCell id="2zF8VjNUCW6DVoFqIz8W-191" value="cook_id" style="shape=partialRectangle;connectable=0;fillColor=none;top=0;left=0;bottom=0;right=0;align=left;spacingLeft=6;fontStyle=4;overflow=hidden;whiteSpace=wrap;html=1;labelBackgroundColor=none;strokeColor=#788AA3;fontColor=#000000;" parent="2zF8VjNUCW6DVoFqIz8W-189" vertex="1">
          <mxGeometry x="30" width="150" height="30" as="geometry">
            <mxRectangle width="150" height="30" as="alternateBounds" />
          </mxGeometry>
        </mxCell>
        <mxCell id="2zF8VjNUCW6DVoFqIz8W-192" value="" style="shape=tableRow;horizontal=0;startSize=0;swimlaneHead=0;swimlaneBody=0;fillColor=none;collapsible=0;dropTarget=0;points=[[0,0.5],[1,0.5]];portConstraint=eastwest;top=0;left=0;right=0;bottom=0;labelBackgroundColor=none;strokeColor=#788AA3;fontColor=#000000;" parent="2zF8VjNUCW6DVoFqIz8W-188" vertex="1">
          <mxGeometry y="60" width="180" height="30" as="geometry" />
        </mxCell>
        <mxCell id="2zF8VjNUCW6DVoFqIz8W-193" value="" style="shape=partialRectangle;connectable=0;fillColor=none;top=0;left=0;bottom=0;right=0;editable=1;overflow=hidden;whiteSpace=wrap;html=1;labelBackgroundColor=none;strokeColor=#788AA3;fontColor=#000000;" parent="2zF8VjNUCW6DVoFqIz8W-192" vertex="1">
          <mxGeometry width="30" height="30" as="geometry">
            <mxRectangle width="30" height="30" as="alternateBounds" />
          </mxGeometry>
        </mxCell>
        <mxCell id="2zF8VjNUCW6DVoFqIz8W-194" value="name" style="shape=partialRectangle;connectable=0;fillColor=none;top=0;left=0;bottom=0;right=0;align=left;spacingLeft=6;overflow=hidden;whiteSpace=wrap;html=1;labelBackgroundColor=none;strokeColor=#788AA3;fontColor=#000000;" parent="2zF8VjNUCW6DVoFqIz8W-192" vertex="1">
          <mxGeometry x="30" width="150" height="30" as="geometry">
            <mxRectangle width="150" height="30" as="alternateBounds" />
          </mxGeometry>
        </mxCell>
        <mxCell id="2zF8VjNUCW6DVoFqIz8W-195" value="" style="shape=tableRow;horizontal=0;startSize=0;swimlaneHead=0;swimlaneBody=0;fillColor=none;collapsible=0;dropTarget=0;points=[[0,0.5],[1,0.5]];portConstraint=eastwest;top=0;left=0;right=0;bottom=0;labelBackgroundColor=none;strokeColor=#788AA3;fontColor=#000000;fontStyle=2" parent="2zF8VjNUCW6DVoFqIz8W-188" vertex="1">
          <mxGeometry y="90" width="180" height="30" as="geometry" />
        </mxCell>
        <mxCell id="2zF8VjNUCW6DVoFqIz8W-196" value="" style="shape=partialRectangle;connectable=0;fillColor=none;top=0;left=0;bottom=0;right=0;editable=1;overflow=hidden;whiteSpace=wrap;html=1;labelBackgroundColor=none;strokeColor=#788AA3;fontColor=#000000;" parent="2zF8VjNUCW6DVoFqIz8W-195" vertex="1">
          <mxGeometry width="30" height="30" as="geometry">
            <mxRectangle width="30" height="30" as="alternateBounds" />
          </mxGeometry>
        </mxCell>
        <mxCell id="2zF8VjNUCW6DVoFqIz8W-197" value="&amp;nbsp; &amp;nbsp; &amp;nbsp; first_name" style="shape=partialRectangle;connectable=0;fillColor=none;top=0;left=0;bottom=0;right=0;align=left;spacingLeft=6;overflow=hidden;whiteSpace=wrap;html=1;labelBackgroundColor=none;strokeColor=#788AA3;fontColor=#000000;fontStyle=2" parent="2zF8VjNUCW6DVoFqIz8W-195" vertex="1">
          <mxGeometry x="30" width="150" height="30" as="geometry">
            <mxRectangle width="150" height="30" as="alternateBounds" />
          </mxGeometry>
        </mxCell>
        <mxCell id="2zF8VjNUCW6DVoFqIz8W-198" value="" style="shape=tableRow;horizontal=0;startSize=0;swimlaneHead=0;swimlaneBody=0;fillColor=none;collapsible=0;dropTarget=0;points=[[0,0.5],[1,0.5]];portConstraint=eastwest;top=0;left=0;right=0;bottom=0;labelBackgroundColor=none;strokeColor=#788AA3;fontColor=#000000;" parent="2zF8VjNUCW6DVoFqIz8W-188" vertex="1">
          <mxGeometry y="120" width="180" height="30" as="geometry" />
        </mxCell>
        <mxCell id="2zF8VjNUCW6DVoFqIz8W-199" value="" style="shape=partialRectangle;connectable=0;fillColor=none;top=0;left=0;bottom=0;right=0;editable=1;overflow=hidden;whiteSpace=wrap;html=1;labelBackgroundColor=none;strokeColor=#788AA3;fontColor=#000000;" parent="2zF8VjNUCW6DVoFqIz8W-198" vertex="1">
          <mxGeometry width="30" height="30" as="geometry">
            <mxRectangle width="30" height="30" as="alternateBounds" />
          </mxGeometry>
        </mxCell>
        <mxCell id="2zF8VjNUCW6DVoFqIz8W-200" value="&amp;nbsp; &amp;nbsp; &amp;nbsp; last_name" style="shape=partialRectangle;connectable=0;fillColor=none;top=0;left=0;bottom=0;right=0;align=left;spacingLeft=6;overflow=hidden;whiteSpace=wrap;html=1;labelBackgroundColor=none;strokeColor=#788AA3;fontColor=#000000;fontStyle=2" parent="2zF8VjNUCW6DVoFqIz8W-198" vertex="1">
          <mxGeometry x="30" width="150" height="30" as="geometry">
            <mxRectangle width="150" height="30" as="alternateBounds" />
          </mxGeometry>
        </mxCell>
        <mxCell id="2zF8VjNUCW6DVoFqIz8W-201" value="" style="shape=tableRow;horizontal=0;startSize=0;swimlaneHead=0;swimlaneBody=0;fillColor=none;collapsible=0;dropTarget=0;points=[[0,0.5],[1,0.5]];portConstraint=eastwest;top=0;left=0;right=0;bottom=0;labelBackgroundColor=none;strokeColor=#788AA3;fontColor=#000000;" parent="2zF8VjNUCW6DVoFqIz8W-188" vertex="1">
          <mxGeometry y="150" width="180" height="30" as="geometry" />
        </mxCell>
        <mxCell id="2zF8VjNUCW6DVoFqIz8W-202" value="" style="shape=partialRectangle;connectable=0;fillColor=none;top=0;left=0;bottom=0;right=0;editable=1;overflow=hidden;whiteSpace=wrap;html=1;labelBackgroundColor=none;strokeColor=#788AA3;fontColor=#000000;" parent="2zF8VjNUCW6DVoFqIz8W-201" vertex="1">
          <mxGeometry width="30" height="30" as="geometry">
            <mxRectangle width="30" height="30" as="alternateBounds" />
          </mxGeometry>
        </mxCell>
        <mxCell id="2zF8VjNUCW6DVoFqIz8W-203" value="contact_number" style="shape=partialRectangle;connectable=0;fillColor=none;top=0;left=0;bottom=0;right=0;align=left;spacingLeft=6;overflow=hidden;whiteSpace=wrap;html=1;labelBackgroundColor=none;strokeColor=#788AA3;fontColor=#000000;" parent="2zF8VjNUCW6DVoFqIz8W-201" vertex="1">
          <mxGeometry x="30" width="150" height="30" as="geometry">
            <mxRectangle width="150" height="30" as="alternateBounds" />
          </mxGeometry>
        </mxCell>
        <mxCell id="2zF8VjNUCW6DVoFqIz8W-204" value="" style="shape=tableRow;horizontal=0;startSize=0;swimlaneHead=0;swimlaneBody=0;fillColor=none;collapsible=0;dropTarget=0;points=[[0,0.5],[1,0.5]];portConstraint=eastwest;top=0;left=0;right=0;bottom=0;labelBackgroundColor=none;strokeColor=#788AA3;fontColor=#000000;" parent="2zF8VjNUCW6DVoFqIz8W-188" vertex="1">
          <mxGeometry y="180" width="180" height="30" as="geometry" />
        </mxCell>
        <mxCell id="2zF8VjNUCW6DVoFqIz8W-205" value="" style="shape=partialRectangle;connectable=0;fillColor=none;top=0;left=0;bottom=0;right=0;editable=1;overflow=hidden;whiteSpace=wrap;html=1;labelBackgroundColor=none;strokeColor=#788AA3;fontColor=#000000;" parent="2zF8VjNUCW6DVoFqIz8W-204" vertex="1">
          <mxGeometry width="30" height="30" as="geometry">
            <mxRectangle width="30" height="30" as="alternateBounds" />
          </mxGeometry>
        </mxCell>
        <mxCell id="2zF8VjNUCW6DVoFqIz8W-206" value="date_of_birth" style="shape=partialRectangle;connectable=0;fillColor=none;top=0;left=0;bottom=0;right=0;align=left;spacingLeft=6;overflow=hidden;whiteSpace=wrap;html=1;labelBackgroundColor=none;strokeColor=#788AA3;fontColor=#000000;" parent="2zF8VjNUCW6DVoFqIz8W-204" vertex="1">
          <mxGeometry x="30" width="150" height="30" as="geometry">
            <mxRectangle width="150" height="30" as="alternateBounds" />
          </mxGeometry>
        </mxCell>
        <mxCell id="2zF8VjNUCW6DVoFqIz8W-207" value="" style="shape=tableRow;horizontal=0;startSize=0;swimlaneHead=0;swimlaneBody=0;fillColor=none;collapsible=0;dropTarget=0;points=[[0,0.5],[1,0.5]];portConstraint=eastwest;top=0;left=0;right=0;bottom=0;labelBackgroundColor=none;strokeColor=#788AA3;fontColor=#000000;" parent="2zF8VjNUCW6DVoFqIz8W-188" vertex="1">
          <mxGeometry y="210" width="180" height="30" as="geometry" />
        </mxCell>
        <mxCell id="2zF8VjNUCW6DVoFqIz8W-208" value="" style="shape=partialRectangle;connectable=0;fillColor=none;top=0;left=0;bottom=0;right=0;editable=1;overflow=hidden;whiteSpace=wrap;html=1;labelBackgroundColor=none;strokeColor=#788AA3;fontColor=#000000;" parent="2zF8VjNUCW6DVoFqIz8W-207" vertex="1">
          <mxGeometry width="30" height="30" as="geometry">
            <mxRectangle width="30" height="30" as="alternateBounds" />
          </mxGeometry>
        </mxCell>
        <mxCell id="2zF8VjNUCW6DVoFqIz8W-209" value="age()" style="shape=partialRectangle;connectable=0;fillColor=none;top=0;left=0;bottom=0;right=0;align=left;spacingLeft=6;overflow=hidden;whiteSpace=wrap;html=1;labelBackgroundColor=none;strokeColor=#788AA3;fontColor=#000000;" parent="2zF8VjNUCW6DVoFqIz8W-207" vertex="1">
          <mxGeometry x="30" width="150" height="30" as="geometry">
            <mxRectangle width="150" height="30" as="alternateBounds" />
          </mxGeometry>
        </mxCell>
        <mxCell id="2zF8VjNUCW6DVoFqIz8W-210" value="" style="shape=tableRow;horizontal=0;startSize=0;swimlaneHead=0;swimlaneBody=0;fillColor=none;collapsible=0;dropTarget=0;points=[[0,0.5],[1,0.5]];portConstraint=eastwest;top=0;left=0;right=0;bottom=0;labelBackgroundColor=none;strokeColor=#788AA3;fontColor=#000000;" parent="2zF8VjNUCW6DVoFqIz8W-188" vertex="1">
          <mxGeometry y="240" width="180" height="30" as="geometry" />
        </mxCell>
        <mxCell id="2zF8VjNUCW6DVoFqIz8W-211" value="" style="shape=partialRectangle;connectable=0;fillColor=none;top=0;left=0;bottom=0;right=0;editable=1;overflow=hidden;whiteSpace=wrap;html=1;labelBackgroundColor=none;strokeColor=#788AA3;fontColor=#000000;" parent="2zF8VjNUCW6DVoFqIz8W-210" vertex="1">
          <mxGeometry width="30" height="30" as="geometry">
            <mxRectangle width="30" height="30" as="alternateBounds" />
          </mxGeometry>
        </mxCell>
        <mxCell id="2zF8VjNUCW6DVoFqIz8W-212" value="ranking" style="shape=partialRectangle;connectable=0;fillColor=none;top=0;left=0;bottom=0;right=0;align=left;spacingLeft=6;overflow=hidden;whiteSpace=wrap;html=1;labelBackgroundColor=none;strokeColor=#788AA3;fontColor=#000000;" parent="2zF8VjNUCW6DVoFqIz8W-210" vertex="1">
          <mxGeometry x="30" width="150" height="30" as="geometry">
            <mxRectangle width="150" height="30" as="alternateBounds" />
          </mxGeometry>
        </mxCell>
        <mxCell id="2zF8VjNUCW6DVoFqIz8W-213" value="" style="shape=tableRow;horizontal=0;startSize=0;swimlaneHead=0;swimlaneBody=0;fillColor=none;collapsible=0;dropTarget=0;points=[[0,0.5],[1,0.5]];portConstraint=eastwest;top=0;left=0;right=0;bottom=0;labelBackgroundColor=none;strokeColor=#788AA3;fontColor=#000000;" parent="2zF8VjNUCW6DVoFqIz8W-188" vertex="1">
          <mxGeometry y="270" width="180" height="30" as="geometry" />
        </mxCell>
        <mxCell id="2zF8VjNUCW6DVoFqIz8W-214" value="" style="shape=partialRectangle;connectable=0;fillColor=none;top=0;left=0;bottom=0;right=0;editable=1;overflow=hidden;whiteSpace=wrap;html=1;labelBackgroundColor=none;strokeColor=#788AA3;fontColor=#000000;" parent="2zF8VjNUCW6DVoFqIz8W-213" vertex="1">
          <mxGeometry width="30" height="30" as="geometry">
            <mxRectangle width="30" height="30" as="alternateBounds" />
          </mxGeometry>
        </mxCell>
        <mxCell id="2zF8VjNUCW6DVoFqIz8W-215" value="years_of_experience" style="shape=partialRectangle;connectable=0;fillColor=none;top=0;left=0;bottom=0;right=0;align=left;spacingLeft=6;overflow=hidden;whiteSpace=wrap;html=1;labelBackgroundColor=none;strokeColor=#788AA3;fontColor=#000000;" parent="2zF8VjNUCW6DVoFqIz8W-213" vertex="1">
          <mxGeometry x="30" width="150" height="30" as="geometry">
            <mxRectangle width="150" height="30" as="alternateBounds" />
          </mxGeometry>
        </mxCell>
        <mxCell id="fA2K2a8_lugMrLm0uG4D-6" style="shape=tableRow;horizontal=0;startSize=0;swimlaneHead=0;swimlaneBody=0;fillColor=none;collapsible=0;dropTarget=0;points=[[0,0.5],[1,0.5]];portConstraint=eastwest;top=0;left=0;right=0;bottom=0;labelBackgroundColor=none;strokeColor=#788AA3;fontColor=#000000;" parent="2zF8VjNUCW6DVoFqIz8W-188" vertex="1">
          <mxGeometry y="300" width="180" height="30" as="geometry" />
        </mxCell>
        <mxCell id="fA2K2a8_lugMrLm0uG4D-7" style="shape=partialRectangle;connectable=0;fillColor=none;top=0;left=0;bottom=0;right=0;editable=1;overflow=hidden;whiteSpace=wrap;html=1;labelBackgroundColor=none;strokeColor=#788AA3;fontColor=#000000;" parent="fA2K2a8_lugMrLm0uG4D-6" vertex="1">
          <mxGeometry width="30" height="30" as="geometry">
            <mxRectangle width="30" height="30" as="alternateBounds" />
          </mxGeometry>
        </mxCell>
        <mxCell id="fA2K2a8_lugMrLm0uG4D-8" value="username" style="shape=partialRectangle;connectable=0;fillColor=none;top=0;left=0;bottom=0;right=0;align=left;spacingLeft=6;overflow=hidden;whiteSpace=wrap;html=1;labelBackgroundColor=none;strokeColor=#788AA3;fontColor=#000000;" parent="fA2K2a8_lugMrLm0uG4D-6" vertex="1">
          <mxGeometry x="30" width="150" height="30" as="geometry">
            <mxRectangle width="150" height="30" as="alternateBounds" />
          </mxGeometry>
        </mxCell>
        <mxCell id="fA2K2a8_lugMrLm0uG4D-3" style="shape=tableRow;horizontal=0;startSize=0;swimlaneHead=0;swimlaneBody=0;fillColor=none;collapsible=0;dropTarget=0;points=[[0,0.5],[1,0.5]];portConstraint=eastwest;top=0;left=0;right=0;bottom=0;labelBackgroundColor=none;strokeColor=#788AA3;fontColor=#000000;" parent="2zF8VjNUCW6DVoFqIz8W-188" vertex="1">
          <mxGeometry y="330" width="180" height="30" as="geometry" />
        </mxCell>
        <mxCell id="fA2K2a8_lugMrLm0uG4D-4" style="shape=partialRectangle;connectable=0;fillColor=none;top=0;left=0;bottom=0;right=0;editable=1;overflow=hidden;whiteSpace=wrap;html=1;labelBackgroundColor=none;strokeColor=#788AA3;fontColor=#000000;" parent="fA2K2a8_lugMrLm0uG4D-3" vertex="1">
          <mxGeometry width="30" height="30" as="geometry">
            <mxRectangle width="30" height="30" as="alternateBounds" />
          </mxGeometry>
        </mxCell>
        <mxCell id="fA2K2a8_lugMrLm0uG4D-5" value="password" style="shape=partialRectangle;connectable=0;fillColor=none;top=0;left=0;bottom=0;right=0;align=left;spacingLeft=6;overflow=hidden;whiteSpace=wrap;html=1;labelBackgroundColor=none;strokeColor=#788AA3;fontColor=#000000;" parent="fA2K2a8_lugMrLm0uG4D-3" vertex="1">
          <mxGeometry x="30" width="150" height="30" as="geometry">
            <mxRectangle width="150" height="30" as="alternateBounds" />
          </mxGeometry>
        </mxCell>
        <mxCell id="2zF8VjNUCW6DVoFqIz8W-216" value="Episode" style="shape=table;startSize=30;container=1;collapsible=1;childLayout=tableLayout;fixedRows=1;rowLines=0;fontStyle=1;align=center;resizeLast=1;html=1;fillColor=#B2C9AB;strokeColor=#788AA3;labelBackgroundColor=none;fontColor=#000000;" parent="1" vertex="1">
          <mxGeometry x="1777" y="362" width="180" height="150" as="geometry" />
        </mxCell>
        <mxCell id="2zF8VjNUCW6DVoFqIz8W-217" value="" style="shape=tableRow;horizontal=0;startSize=0;swimlaneHead=0;swimlaneBody=0;fillColor=none;collapsible=0;dropTarget=0;points=[[0,0.5],[1,0.5]];portConstraint=eastwest;top=0;left=0;right=0;bottom=1;labelBackgroundColor=none;strokeColor=#788AA3;fontColor=#000000;" parent="2zF8VjNUCW6DVoFqIz8W-216" vertex="1">
          <mxGeometry y="30" width="180" height="30" as="geometry" />
        </mxCell>
        <mxCell id="2zF8VjNUCW6DVoFqIz8W-218" value="PK" style="shape=partialRectangle;connectable=0;fillColor=none;top=0;left=0;bottom=0;right=0;fontStyle=0;overflow=hidden;whiteSpace=wrap;html=1;labelBackgroundColor=none;strokeColor=#788AA3;fontColor=#000000;" parent="2zF8VjNUCW6DVoFqIz8W-217" vertex="1">
          <mxGeometry width="30" height="30" as="geometry">
            <mxRectangle width="30" height="30" as="alternateBounds" />
          </mxGeometry>
        </mxCell>
        <mxCell id="2zF8VjNUCW6DVoFqIz8W-219" value="episode_id" style="shape=partialRectangle;connectable=0;fillColor=none;top=0;left=0;bottom=0;right=0;align=left;spacingLeft=6;fontStyle=4;overflow=hidden;whiteSpace=wrap;html=1;labelBackgroundColor=none;strokeColor=#788AA3;fontColor=#000000;" parent="2zF8VjNUCW6DVoFqIz8W-217" vertex="1">
          <mxGeometry x="30" width="150" height="30" as="geometry">
            <mxRectangle width="150" height="30" as="alternateBounds" />
          </mxGeometry>
        </mxCell>
        <mxCell id="2zF8VjNUCW6DVoFqIz8W-220" value="" style="shape=tableRow;horizontal=0;startSize=0;swimlaneHead=0;swimlaneBody=0;fillColor=none;collapsible=0;dropTarget=0;points=[[0,0.5],[1,0.5]];portConstraint=eastwest;top=0;left=0;right=0;bottom=0;labelBackgroundColor=none;strokeColor=#788AA3;fontColor=#000000;" parent="2zF8VjNUCW6DVoFqIz8W-216" vertex="1">
          <mxGeometry y="60" width="180" height="30" as="geometry" />
        </mxCell>
        <mxCell id="2zF8VjNUCW6DVoFqIz8W-221" value="" style="shape=partialRectangle;connectable=0;fillColor=none;top=0;left=0;bottom=0;right=0;editable=1;overflow=hidden;whiteSpace=wrap;html=1;labelBackgroundColor=none;strokeColor=#788AA3;fontColor=#000000;" parent="2zF8VjNUCW6DVoFqIz8W-220" vertex="1">
          <mxGeometry width="30" height="30" as="geometry">
            <mxRectangle width="30" height="30" as="alternateBounds" />
          </mxGeometry>
        </mxCell>
        <mxCell id="2zF8VjNUCW6DVoFqIz8W-222" value="name" style="shape=partialRectangle;connectable=0;fillColor=none;top=0;left=0;bottom=0;right=0;align=left;spacingLeft=6;overflow=hidden;whiteSpace=wrap;html=1;labelBackgroundColor=none;strokeColor=#788AA3;fontColor=#000000;" parent="2zF8VjNUCW6DVoFqIz8W-220" vertex="1">
          <mxGeometry x="30" width="150" height="30" as="geometry">
            <mxRectangle width="150" height="30" as="alternateBounds" />
          </mxGeometry>
        </mxCell>
        <mxCell id="2zF8VjNUCW6DVoFqIz8W-223" value="" style="shape=tableRow;horizontal=0;startSize=0;swimlaneHead=0;swimlaneBody=0;fillColor=none;collapsible=0;dropTarget=0;points=[[0,0.5],[1,0.5]];portConstraint=eastwest;top=0;left=0;right=0;bottom=0;labelBackgroundColor=none;strokeColor=#788AA3;fontColor=#000000;" parent="2zF8VjNUCW6DVoFqIz8W-216" vertex="1">
          <mxGeometry y="90" width="180" height="30" as="geometry" />
        </mxCell>
        <mxCell id="2zF8VjNUCW6DVoFqIz8W-224" value="" style="shape=partialRectangle;connectable=0;fillColor=none;top=0;left=0;bottom=0;right=0;editable=1;overflow=hidden;whiteSpace=wrap;html=1;labelBackgroundColor=none;strokeColor=#788AA3;fontColor=#000000;" parent="2zF8VjNUCW6DVoFqIz8W-223" vertex="1">
          <mxGeometry width="30" height="30" as="geometry">
            <mxRectangle width="30" height="30" as="alternateBounds" />
          </mxGeometry>
        </mxCell>
        <mxCell id="2zF8VjNUCW6DVoFqIz8W-225" value="season" style="shape=partialRectangle;connectable=0;fillColor=none;top=0;left=0;bottom=0;right=0;align=left;spacingLeft=6;overflow=hidden;whiteSpace=wrap;html=1;labelBackgroundColor=none;strokeColor=#788AA3;fontColor=#000000;" parent="2zF8VjNUCW6DVoFqIz8W-223" vertex="1">
          <mxGeometry x="30" width="150" height="30" as="geometry">
            <mxRectangle width="150" height="30" as="alternateBounds" />
          </mxGeometry>
        </mxCell>
        <mxCell id="4TAAjnSzIqckUplBbA9e-12" style="shape=tableRow;horizontal=0;startSize=0;swimlaneHead=0;swimlaneBody=0;fillColor=none;collapsible=0;dropTarget=0;points=[[0,0.5],[1,0.5]];portConstraint=eastwest;top=0;left=0;right=0;bottom=0;labelBackgroundColor=none;strokeColor=#788AA3;fontColor=#000000;" parent="2zF8VjNUCW6DVoFqIz8W-216" vertex="1">
          <mxGeometry y="120" width="180" height="30" as="geometry" />
        </mxCell>
        <mxCell id="4TAAjnSzIqckUplBbA9e-13" style="shape=partialRectangle;connectable=0;fillColor=none;top=0;left=0;bottom=0;right=0;editable=1;overflow=hidden;whiteSpace=wrap;html=1;labelBackgroundColor=none;strokeColor=#788AA3;fontColor=#000000;" parent="4TAAjnSzIqckUplBbA9e-12" vertex="1">
          <mxGeometry width="30" height="30" as="geometry">
            <mxRectangle width="30" height="30" as="alternateBounds" />
          </mxGeometry>
        </mxCell>
        <mxCell id="4TAAjnSzIqckUplBbA9e-14" value="winner" style="shape=partialRectangle;connectable=0;fillColor=none;top=0;left=0;bottom=0;right=0;align=left;spacingLeft=6;overflow=hidden;whiteSpace=wrap;html=1;labelBackgroundColor=none;strokeColor=#788AA3;fontColor=#000000;" parent="4TAAjnSzIqckUplBbA9e-12" vertex="1">
          <mxGeometry x="30" width="150" height="30" as="geometry">
            <mxRectangle width="150" height="30" as="alternateBounds" />
          </mxGeometry>
        </mxCell>
        <mxCell id="p3Tt-YkkRpSDPijZvC6o-5" value="Contains" style="shape=rhombus;perimeter=rhombusPerimeter;whiteSpace=wrap;html=1;align=center;labelBackgroundColor=none;fillColor=#B2C9AB;strokeColor=#788AA3;fontColor=#000000;fontStyle=1" parent="1" vertex="1">
          <mxGeometry x="99.49999999999999" y="1098.5" width="113" height="56" as="geometry" />
        </mxCell>
        <mxCell id="p3Tt-YkkRpSDPijZvC6o-7" value="" style="endArrow=none;dashed=1;html=1;dashPattern=1 3;strokeWidth=2;rounded=0;labelBackgroundColor=none;strokeColor=#788AA3;fontColor=#000000;" parent="1" edge="1">
          <mxGeometry width="50" height="50" relative="1" as="geometry">
            <mxPoint x="158.99999999999997" y="1098.5" as="sourcePoint" />
            <mxPoint x="159.49999999999997" y="1057.5" as="targetPoint" />
          </mxGeometry>
        </mxCell>
        <mxCell id="p3Tt-YkkRpSDPijZvC6o-8" value="Basic_Ingredient" style="whiteSpace=wrap;html=1;align=center;labelBackgroundColor=none;fillColor=#B2C9AB;strokeColor=#788AA3;fontColor=#000000;fontStyle=1" parent="1" vertex="1">
          <mxGeometry x="109.49999999999999" y="1016.5" width="100" height="36" as="geometry" />
        </mxCell>
        <mxCell id="p3Tt-YkkRpSDPijZvC6o-9" value="" style="endArrow=none;dashed=1;html=1;dashPattern=1 3;strokeWidth=2;rounded=0;labelBackgroundColor=none;strokeColor=#788AA3;fontColor=default;exitX=0.445;exitY=0.066;exitDx=0;exitDy=0;exitPerimeter=0;" parent="1" edge="1">
          <mxGeometry width="50" height="50" relative="1" as="geometry">
            <mxPoint x="68.16499999999996" y="1212.31" as="sourcePoint" />
            <mxPoint x="159.49999999999997" y="1158.5" as="targetPoint" />
          </mxGeometry>
        </mxCell>
        <mxCell id="p3Tt-YkkRpSDPijZvC6o-10" value="Quantity" style="whiteSpace=wrap;html=1;align=center;labelBackgroundColor=none;fillColor=#B2C9AB;strokeColor=#788AA3;fontColor=#000000;fontStyle=1" parent="1" vertex="1">
          <mxGeometry x="17.999999999999986" y="1210.5" width="85" height="35" as="geometry" />
        </mxCell>
        <mxCell id="p3Tt-YkkRpSDPijZvC6o-12" value="Described_by" style="shape=rhombus;perimeter=rhombusPerimeter;whiteSpace=wrap;html=1;align=center;labelBackgroundColor=none;fillColor=#B2C9AB;strokeColor=#788AA3;fontColor=#000000;fontStyle=1" parent="1" vertex="1">
          <mxGeometry x="364" y="362" width="113" height="56" as="geometry" />
        </mxCell>
        <mxCell id="p3Tt-YkkRpSDPijZvC6o-15" value="Utilizes" style="shape=rhombus;perimeter=rhombusPerimeter;whiteSpace=wrap;html=1;align=center;labelBackgroundColor=none;fillColor=#B2C9AB;strokeColor=#788AA3;fontColor=#000000;fontStyle=1" parent="1" vertex="1">
          <mxGeometry x="364" y="482" width="113" height="56" as="geometry" />
        </mxCell>
        <mxCell id="p3Tt-YkkRpSDPijZvC6o-24" value="Has" style="shape=rhombus;perimeter=rhombusPerimeter;whiteSpace=wrap;html=1;align=center;labelBackgroundColor=none;fillColor=#B2C9AB;strokeColor=#788AA3;fontColor=#000000;fontStyle=1" parent="1" vertex="1">
          <mxGeometry x="876" y="182" width="105" height="56" as="geometry" />
        </mxCell>
        <mxCell id="p3Tt-YkkRpSDPijZvC6o-28" value="Has" style="shape=rhombus;perimeter=rhombusPerimeter;whiteSpace=wrap;html=1;align=center;labelBackgroundColor=none;fillColor=#B2C9AB;strokeColor=#788AA3;fontColor=#000000;fontStyle=1" parent="1" vertex="1">
          <mxGeometry x="883" y="353" width="105" height="56" as="geometry" />
        </mxCell>
        <mxCell id="p3Tt-YkkRpSDPijZvC6o-29" value="Has" style="shape=rhombus;perimeter=rhombusPerimeter;whiteSpace=wrap;html=1;align=center;labelBackgroundColor=none;fillColor=#B2C9AB;strokeColor=#788AA3;fontColor=#000000;fontStyle=1" parent="1" vertex="1">
          <mxGeometry x="880" y="473" width="105" height="56" as="geometry" />
        </mxCell>
        <mxCell id="p3Tt-YkkRpSDPijZvC6o-30" value="Has" style="shape=rhombus;perimeter=rhombusPerimeter;whiteSpace=wrap;html=1;align=center;labelBackgroundColor=none;fillColor=#B2C9AB;strokeColor=#788AA3;fontColor=#000000;fontStyle=1" parent="1" vertex="1">
          <mxGeometry x="1539" y="473" width="105" height="56" as="geometry" />
        </mxCell>
        <mxCell id="p3Tt-YkkRpSDPijZvC6o-31" value="Has" style="shape=rhombus;perimeter=rhombusPerimeter;whiteSpace=wrap;html=1;align=center;labelBackgroundColor=none;fillColor=#B2C9AB;strokeColor=#788AA3;fontColor=#000000;fontStyle=1" parent="1" vertex="1">
          <mxGeometry x="1001.5" y="1325" width="105" height="56" as="geometry" />
        </mxCell>
        <mxCell id="p3Tt-YkkRpSDPijZvC6o-32" value="Has" style="shape=rhombus;perimeter=rhombusPerimeter;whiteSpace=wrap;html=1;align=center;labelBackgroundColor=none;fillColor=#B2C9AB;strokeColor=#788AA3;fontColor=#000000;fontStyle=1" parent="1" vertex="1">
          <mxGeometry x="402" y="1135" width="105" height="56" as="geometry" />
        </mxCell>
        <mxCell id="p3Tt-YkkRpSDPijZvC6o-34" value="Has" style="shape=rhombus;perimeter=rhombusPerimeter;whiteSpace=wrap;html=1;align=center;labelBackgroundColor=none;fillColor=#B2C9AB;strokeColor=#788AA3;fontColor=#000000;fontStyle=1" parent="1" vertex="1">
          <mxGeometry x="421" y="798" width="105" height="56" as="geometry" />
        </mxCell>
        <mxCell id="p3Tt-YkkRpSDPijZvC6o-47" value="Belongs" style="shape=rhombus;perimeter=rhombusPerimeter;whiteSpace=wrap;html=1;align=center;labelBackgroundColor=none;fillColor=#B2C9AB;strokeColor=#788AA3;fontColor=#000000;fontStyle=1" parent="1" vertex="1">
          <mxGeometry x="380" y="1329" width="113" height="56" as="geometry" />
        </mxCell>
        <mxCell id="p3Tt-YkkRpSDPijZvC6o-59" value="Has" style="shape=rhombus;perimeter=rhombusPerimeter;whiteSpace=wrap;html=1;align=center;labelBackgroundColor=none;fillColor=#B2C9AB;strokeColor=#788AA3;fontColor=#000000;fontStyle=1" parent="1" vertex="1">
          <mxGeometry x="1348" y="1143" width="105" height="56" as="geometry" />
        </mxCell>
        <mxCell id="p3Tt-YkkRpSDPijZvC6o-61" value="Has" style="shape=rhombus;perimeter=rhombusPerimeter;whiteSpace=wrap;html=1;align=center;labelBackgroundColor=none;fillColor=#B2C9AB;strokeColor=#788AA3;fontColor=#000000;fontStyle=1" parent="1" vertex="1">
          <mxGeometry x="1157.5" y="742" width="105" height="56" as="geometry" />
        </mxCell>
        <mxCell id="p3Tt-YkkRpSDPijZvC6o-62" value="&lt;b&gt;Specializes&lt;/b&gt;" style="shape=rhombus;perimeter=rhombusPerimeter;whiteSpace=wrap;html=1;align=center;labelBackgroundColor=none;fillColor=#B2C9AB;strokeColor=#788AA3;fontColor=#000000;" parent="1" vertex="1">
          <mxGeometry x="1414" y="743" width="113" height="56" as="geometry" />
        </mxCell>
        <mxCell id="p3Tt-YkkRpSDPijZvC6o-71" value="Judges_in" style="shape=rhombus;perimeter=rhombusPerimeter;whiteSpace=wrap;html=1;align=center;labelBackgroundColor=none;fillColor=#B2C9AB;strokeColor=#788AA3;fontColor=#000000;fontStyle=1" parent="1" vertex="1">
          <mxGeometry x="1636" y="744.5" width="100" height="51" as="geometry" />
        </mxCell>
        <mxCell id="p3Tt-YkkRpSDPijZvC6o-81" value="Rating_1" style="whiteSpace=wrap;html=1;align=center;labelBackgroundColor=none;fillColor=#B2C9AB;strokeColor=#788AA3;fontColor=#000000;fontStyle=1" parent="1" vertex="1">
          <mxGeometry x="1793" y="899" width="90" height="35" as="geometry" />
        </mxCell>
        <mxCell id="p3Tt-YkkRpSDPijZvC6o-82" value="Rating_2" style="whiteSpace=wrap;html=1;align=center;labelBackgroundColor=none;fillColor=#B2C9AB;strokeColor=#788AA3;fontColor=#000000;fontStyle=1" parent="1" vertex="1">
          <mxGeometry x="1895" y="899" width="90" height="35" as="geometry" />
        </mxCell>
        <mxCell id="p3Tt-YkkRpSDPijZvC6o-83" value="Rating_3" style="whiteSpace=wrap;html=1;align=center;labelBackgroundColor=none;fillColor=#B2C9AB;strokeColor=#788AA3;fontColor=#000000;fontStyle=1" parent="1" vertex="1">
          <mxGeometry x="2001" y="899" width="90" height="35" as="geometry" />
        </mxCell>
        <mxCell id="p3Tt-YkkRpSDPijZvC6o-84" value="Sum" style="whiteSpace=wrap;html=1;align=center;labelBackgroundColor=none;fillColor=#B2C9AB;strokeColor=#788AA3;fontColor=#000000;dashed=1;fontStyle=1" parent="1" vertex="1">
          <mxGeometry x="1897.5" y="639" width="85" height="35" as="geometry" />
        </mxCell>
        <mxCell id="V-uk5Y1F8bTmsxMr_i8K-7" value="" style="fontSize=12;html=1;endArrow=ERmany;startArrow=none;rounded=0;edgeStyle=orthogonalEdgeStyle;entryX=1;entryY=0.5;entryDx=0;entryDy=0;startFill=0;labelBackgroundColor=none;strokeColor=#788AA3;fontColor=#000000;" parent="1" target="2zF8VjNUCW6DVoFqIz8W-104" edge="1">
          <mxGeometry width="100" height="100" relative="1" as="geometry">
            <mxPoint x="212.4999999999999" y="1128.72" as="sourcePoint" />
            <mxPoint x="266" y="934" as="targetPoint" />
            <Array as="points">
              <mxPoint x="275" y="1129" />
              <mxPoint x="275" y="886" />
            </Array>
          </mxGeometry>
        </mxCell>
        <mxCell id="V-uk5Y1F8bTmsxMr_i8K-9" value="" style="edgeStyle=elbowEdgeStyle;fontSize=12;html=1;endArrow=none;startArrow=ERmany;rounded=0;endFill=0;labelBackgroundColor=none;strokeColor=#788AA3;fontColor=#000000;" parent="1" source="2zF8VjNUCW6DVoFqIz8W-120" edge="1">
          <mxGeometry width="100" height="100" relative="1" as="geometry">
            <mxPoint x="82.06000000000017" y="1351" as="sourcePoint" />
            <mxPoint x="99.5" y="1126.48" as="targetPoint" />
          </mxGeometry>
        </mxCell>
        <mxCell id="V-uk5Y1F8bTmsxMr_i8K-12" value="" style="fontSize=12;html=1;endArrow=ERoneToMany;rounded=0;exitX=0;exitY=0.5;exitDx=0;exitDy=0;labelBackgroundColor=none;strokeColor=#788AA3;fontColor=#000000;" parent="1" source="p3Tt-YkkRpSDPijZvC6o-47" edge="1">
          <mxGeometry width="100" height="100" relative="1" as="geometry">
            <mxPoint x="389" y="1467" as="sourcePoint" />
            <mxPoint x="263" y="1357" as="targetPoint" />
          </mxGeometry>
        </mxCell>
        <mxCell id="V-uk5Y1F8bTmsxMr_i8K-13" value="" style="fontSize=12;html=1;endArrow=ERmandOne;startArrow=none;rounded=0;entryX=-0.027;entryY=-0.196;entryDx=0;entryDy=0;entryPerimeter=0;exitX=1;exitY=0.5;exitDx=0;exitDy=0;startFill=0;labelBackgroundColor=none;strokeColor=#788AA3;fontColor=#000000;" parent="1" source="p3Tt-YkkRpSDPijZvC6o-47" target="2zF8VjNUCW6DVoFqIz8W-163" edge="1">
          <mxGeometry width="100" height="100" relative="1" as="geometry">
            <mxPoint x="511" y="1346" as="sourcePoint" />
            <mxPoint x="604" y="1253" as="targetPoint" />
          </mxGeometry>
        </mxCell>
        <mxCell id="V-uk5Y1F8bTmsxMr_i8K-14" value="" style="edgeStyle=orthogonalEdgeStyle;fontSize=12;html=1;endArrow=ERmany;startArrow=none;rounded=0;startFill=0;labelBackgroundColor=none;strokeColor=#788AA3;fontColor=#000000;" parent="1" source="p3Tt-YkkRpSDPijZvC6o-24" edge="1">
          <mxGeometry width="100" height="100" relative="1" as="geometry">
            <mxPoint x="872" y="134" as="sourcePoint" />
            <mxPoint x="164.99990099009904" y="362" as="targetPoint" />
            <Array as="points">
              <mxPoint x="165" y="209" />
            </Array>
          </mxGeometry>
        </mxCell>
        <mxCell id="V-uk5Y1F8bTmsxMr_i8K-15" value="" style="edgeStyle=elbowEdgeStyle;fontSize=12;html=1;endArrow=ERmandOne;endFill=0;rounded=0;exitX=1;exitY=0.5;exitDx=0;exitDy=0;entryX=0;entryY=0;entryDx=0;entryDy=0;labelBackgroundColor=none;strokeColor=#788AA3;fontColor=#000000;" parent="1" source="p3Tt-YkkRpSDPijZvC6o-24" target="2zF8VjNUCW6DVoFqIz8W-136" edge="1">
          <mxGeometry width="100" height="100" relative="1" as="geometry">
            <mxPoint x="1047" y="143" as="sourcePoint" />
            <mxPoint x="1166" y="136" as="targetPoint" />
          </mxGeometry>
        </mxCell>
        <mxCell id="V-uk5Y1F8bTmsxMr_i8K-18" value="" style="fontSize=12;html=1;endArrow=ERmany;startArrow=none;rounded=0;exitX=1;exitY=0.5;exitDx=0;exitDy=0;entryX=0.022;entryY=-0.067;entryDx=0;entryDy=0;entryPerimeter=0;startFill=0;labelBackgroundColor=none;strokeColor=#788AA3;fontColor=#000000;" parent="1" source="p3Tt-YkkRpSDPijZvC6o-12" target="2zF8VjNUCW6DVoFqIz8W-108" edge="1">
          <mxGeometry width="100" height="100" relative="1" as="geometry">
            <mxPoint x="510" y="348" as="sourcePoint" />
            <mxPoint x="610" y="248" as="targetPoint" />
          </mxGeometry>
        </mxCell>
        <mxCell id="V-uk5Y1F8bTmsxMr_i8K-19" value="" style="fontSize=12;html=1;endArrow=none;startArrow=ERmany;rounded=0;entryX=0;entryY=0.5;entryDx=0;entryDy=0;endFill=0;labelBackgroundColor=none;strokeColor=#788AA3;fontColor=#000000;" parent="1" target="p3Tt-YkkRpSDPijZvC6o-12" edge="1">
          <mxGeometry width="100" height="100" relative="1" as="geometry">
            <mxPoint x="264" y="390" as="sourcePoint" />
            <mxPoint x="438" y="228" as="targetPoint" />
          </mxGeometry>
        </mxCell>
        <mxCell id="V-uk5Y1F8bTmsxMr_i8K-20" value="" style="fontSize=12;html=1;endArrow=ERmany;startArrow=none;rounded=0;exitX=1;exitY=0.5;exitDx=0;exitDy=0;entryX=-0.037;entryY=-0.185;entryDx=0;entryDy=0;entryPerimeter=0;startFill=0;labelBackgroundColor=none;strokeColor=#788AA3;fontColor=#000000;" parent="1" source="p3Tt-YkkRpSDPijZvC6o-15" target="2zF8VjNUCW6DVoFqIz8W-150" edge="1">
          <mxGeometry width="100" height="100" relative="1" as="geometry">
            <mxPoint x="414" y="674" as="sourcePoint" />
            <mxPoint x="514" y="574" as="targetPoint" />
          </mxGeometry>
        </mxCell>
        <mxCell id="V-uk5Y1F8bTmsxMr_i8K-21" value="" style="fontSize=12;html=1;endArrow=none;startArrow=ERmany;rounded=0;entryX=0;entryY=0.5;entryDx=0;entryDy=0;exitX=1.05;exitY=-0.111;exitDx=0;exitDy=0;exitPerimeter=0;endFill=0;labelBackgroundColor=none;strokeColor=#788AA3;fontColor=#000000;" parent="1" source="2zF8VjNUCW6DVoFqIz8W-28" target="p3Tt-YkkRpSDPijZvC6o-15" edge="1">
          <mxGeometry width="100" height="100" relative="1" as="geometry">
            <mxPoint x="319" y="580" as="sourcePoint" />
            <mxPoint x="509" y="572" as="targetPoint" />
          </mxGeometry>
        </mxCell>
        <mxCell id="V-uk5Y1F8bTmsxMr_i8K-22" value="" style="fontSize=12;html=1;endArrow=none;startArrow=ERmandOne;rounded=0;exitX=1;exitY=0.25;exitDx=0;exitDy=0;entryX=0;entryY=0.5;entryDx=0;entryDy=0;endFill=0;labelBackgroundColor=none;strokeColor=#788AA3;fontColor=#000000;" parent="1" source="2zF8VjNUCW6DVoFqIz8W-107" target="p3Tt-YkkRpSDPijZvC6o-28" edge="1">
          <mxGeometry width="100" height="100" relative="1" as="geometry">
            <mxPoint x="826" y="341" as="sourcePoint" />
            <mxPoint x="926" y="241" as="targetPoint" />
          </mxGeometry>
        </mxCell>
        <mxCell id="V-uk5Y1F8bTmsxMr_i8K-23" value="" style="edgeStyle=orthogonalEdgeStyle;fontSize=12;html=1;endArrow=ERmandOne;startArrow=none;rounded=0;entryX=0.915;entryY=0.011;entryDx=0;entryDy=0;entryPerimeter=0;exitX=0;exitY=0.5;exitDx=0;exitDy=0;endFill=0;startFill=0;labelBackgroundColor=none;strokeColor=#788AA3;fontColor=#000000;" parent="1" source="p3Tt-YkkRpSDPijZvC6o-32" target="2zF8VjNUCW6DVoFqIz8W-120" edge="1">
          <mxGeometry width="100" height="100" relative="1" as="geometry">
            <mxPoint x="356.99555555555565" y="1193" as="sourcePoint" />
            <mxPoint x="256.99555555555565" y="1293" as="targetPoint" />
          </mxGeometry>
        </mxCell>
        <mxCell id="V-uk5Y1F8bTmsxMr_i8K-24" value="" style="edgeStyle=elbowEdgeStyle;fontSize=12;html=1;endArrow=ERmandOne;startArrow=none;rounded=0;exitX=1;exitY=0.5;exitDx=0;exitDy=0;entryX=0;entryY=0.5;entryDx=0;entryDy=0;startFill=0;labelBackgroundColor=none;strokeColor=#788AA3;fontColor=#000000;" parent="1" source="p3Tt-YkkRpSDPijZvC6o-32" target="mR3RYauKtjzumqwkYDXa-4" edge="1">
          <mxGeometry width="100" height="100" relative="1" as="geometry">
            <mxPoint x="587" y="1165" as="sourcePoint" />
            <mxPoint x="687" y="1065" as="targetPoint" />
          </mxGeometry>
        </mxCell>
        <mxCell id="V-uk5Y1F8bTmsxMr_i8K-25" value="" style="edgeStyle=elbowEdgeStyle;fontSize=12;html=1;endArrow=ERmandOne;startArrow=none;rounded=0;exitX=1;exitY=0.5;exitDx=0;exitDy=0;entryX=0;entryY=0;entryDx=0;entryDy=0;startFill=0;labelBackgroundColor=none;strokeColor=#788AA3;fontColor=#000000;" parent="1" source="p3Tt-YkkRpSDPijZvC6o-34" target="2zF8VjNUCW6DVoFqIz8W-175" edge="1">
          <mxGeometry width="100" height="100" relative="1" as="geometry">
            <mxPoint x="723" y="821" as="sourcePoint" />
            <mxPoint x="823" y="818" as="targetPoint" />
          </mxGeometry>
        </mxCell>
        <mxCell id="V-uk5Y1F8bTmsxMr_i8K-26" value="" style="fontSize=12;html=1;endArrow=none;startArrow=ERmandOne;rounded=0;exitX=1;exitY=0.5;exitDx=0;exitDy=0;entryX=0;entryY=0.5;entryDx=0;entryDy=0;endFill=0;labelBackgroundColor=none;strokeColor=#788AA3;fontColor=#000000;" parent="1" source="2zF8VjNUCW6DVoFqIz8W-98" target="p3Tt-YkkRpSDPijZvC6o-34" edge="1">
          <mxGeometry width="100" height="100" relative="1" as="geometry">
            <mxPoint x="312" y="793" as="sourcePoint" />
            <mxPoint x="412" y="693" as="targetPoint" />
          </mxGeometry>
        </mxCell>
        <mxCell id="V-uk5Y1F8bTmsxMr_i8K-27" value="" style="edgeStyle=orthogonalEdgeStyle;fontSize=12;html=1;endArrow=none;startArrow=ERmandOne;rounded=0;entryX=0.5;entryY=0;entryDx=0;entryDy=0;exitX=0;exitY=0.25;exitDx=0;exitDy=0;endFill=0;labelBackgroundColor=none;strokeColor=#788AA3;fontColor=#000000;" parent="1" source="2zF8VjNUCW6DVoFqIz8W-136" target="p3Tt-YkkRpSDPijZvC6o-61" edge="1">
          <mxGeometry width="100" height="100" relative="1" as="geometry">
            <mxPoint x="1141" y="531.001739130435" as="sourcePoint" />
            <mxPoint x="1196" y="741.001739130435" as="targetPoint" />
            <Array as="points">
              <mxPoint x="1207" y="524" />
              <mxPoint x="1207" y="742" />
            </Array>
          </mxGeometry>
        </mxCell>
        <mxCell id="V-uk5Y1F8bTmsxMr_i8K-28" value="" style="fontSize=12;html=1;endArrow=none;startArrow=none;rounded=0;startFill=0;endFill=0;exitX=1;exitY=0.5;exitDx=0;exitDy=0;labelBackgroundColor=none;strokeColor=#788AA3;fontColor=#000000;" parent="1" source="p3Tt-YkkRpSDPijZvC6o-29" edge="1">
          <mxGeometry width="100" height="100" relative="1" as="geometry">
            <mxPoint x="950" y="711" as="sourcePoint" />
            <mxPoint x="1099" y="501" as="targetPoint" />
          </mxGeometry>
        </mxCell>
        <mxCell id="V-uk5Y1F8bTmsxMr_i8K-29" value="" style="fontSize=12;html=1;endArrow=none;startArrow=ERmandOne;rounded=0;entryX=0;entryY=0.5;entryDx=0;entryDy=0;endFill=0;labelBackgroundColor=none;strokeColor=#788AA3;fontColor=#000000;exitX=1;exitY=0.1;exitDx=0;exitDy=0;exitPerimeter=0;" parent="1" source="2zF8VjNUCW6DVoFqIz8W-149" target="p3Tt-YkkRpSDPijZvC6o-29" edge="1">
          <mxGeometry width="100" height="100" relative="1" as="geometry">
            <mxPoint x="759" y="521" as="sourcePoint" />
            <mxPoint x="909" y="554" as="targetPoint" />
          </mxGeometry>
        </mxCell>
        <mxCell id="V-uk5Y1F8bTmsxMr_i8K-30" value="" style="edgeStyle=orthogonalEdgeStyle;fontSize=12;html=1;endArrow=ERmandOne;startArrow=none;rounded=0;exitX=0.914;exitY=0.609;exitDx=0;exitDy=0;exitPerimeter=0;entryX=0.75;entryY=0;entryDx=0;entryDy=0;startFill=0;labelBackgroundColor=none;strokeColor=#788AA3;fontColor=#000000;" parent="1" source="p3Tt-YkkRpSDPijZvC6o-60" target="2zF8VjNUCW6DVoFqIz8W-175" edge="1">
          <mxGeometry width="100" height="100" relative="1" as="geometry">
            <mxPoint x="995" y="386" as="sourcePoint" />
            <mxPoint x="1087" y="626" as="targetPoint" />
            <Array as="points">
              <mxPoint x="1398" y="387" />
              <mxPoint x="1398" y="946" />
            </Array>
          </mxGeometry>
        </mxCell>
        <mxCell id="V-uk5Y1F8bTmsxMr_i8K-31" value="" style="edgeStyle=orthogonalEdgeStyle;fontSize=12;html=1;endArrow=none;startArrow=ERmandOne;rounded=0;exitX=0.999;exitY=0.11;exitDx=0;exitDy=0;exitPerimeter=0;entryX=0.5;entryY=1;entryDx=0;entryDy=0;endFill=0;labelBackgroundColor=none;strokeColor=#788AA3;fontColor=#000000;" parent="1" source="2zF8VjNUCW6DVoFqIz8W-175" target="p3Tt-YkkRpSDPijZvC6o-61" edge="1">
          <mxGeometry width="100" height="100" relative="1" as="geometry">
            <mxPoint x="1196" y="960" as="sourcePoint" />
            <mxPoint x="1296" y="860" as="targetPoint" />
          </mxGeometry>
        </mxCell>
        <mxCell id="V-uk5Y1F8bTmsxMr_i8K-33" value="" style="fontSize=12;html=1;endArrow=ERmandOne;startArrow=none;rounded=0;entryX=0.011;entryY=0.163;entryDx=0;entryDy=0;entryPerimeter=0;exitX=1;exitY=0.5;exitDx=0;exitDy=0;startFill=0;labelBackgroundColor=none;strokeColor=#788AA3;fontColor=#000000;" parent="1" source="p3Tt-YkkRpSDPijZvC6o-60" target="2zF8VjNUCW6DVoFqIz8W-216" edge="1">
          <mxGeometry width="100" height="100" relative="1" as="geometry">
            <mxPoint x="1547" y="409" as="sourcePoint" />
            <mxPoint x="1647" y="309" as="targetPoint" />
          </mxGeometry>
        </mxCell>
        <mxCell id="V-uk5Y1F8bTmsxMr_i8K-34" value="" style="fontSize=12;html=1;endArrow=ERmandOne;startArrow=none;rounded=0;entryX=0.5;entryY=1;entryDx=0;entryDy=0;exitX=0.5;exitY=0;exitDx=0;exitDy=0;startFill=0;labelBackgroundColor=none;strokeColor=#788AA3;fontColor=#000000;" parent="1" source="p3Tt-YkkRpSDPijZvC6o-31" target="2zF8VjNUCW6DVoFqIz8W-175" edge="1">
          <mxGeometry width="100" height="100" relative="1" as="geometry">
            <mxPoint x="1037" y="1326" as="sourcePoint" />
            <mxPoint x="1180" y="1137.5" as="targetPoint" />
          </mxGeometry>
        </mxCell>
        <mxCell id="V-uk5Y1F8bTmsxMr_i8K-35" value="" style="fontSize=12;html=1;endArrow=none;startArrow=ERmandOne;rounded=0;entryX=0;entryY=0.5;entryDx=0;entryDy=0;exitX=0.931;exitY=-0.315;exitDx=0;exitDy=0;exitPerimeter=0;endFill=0;labelBackgroundColor=none;strokeColor=#788AA3;fontColor=#000000;" parent="1" source="2zF8VjNUCW6DVoFqIz8W-163" target="p3Tt-YkkRpSDPijZvC6o-31" edge="1">
          <mxGeometry width="100" height="100" relative="1" as="geometry">
            <mxPoint x="815" y="1346" as="sourcePoint" />
            <mxPoint x="952" y="1223" as="targetPoint" />
          </mxGeometry>
        </mxCell>
        <mxCell id="V-uk5Y1F8bTmsxMr_i8K-36" value="" style="edgeStyle=elbowEdgeStyle;fontSize=12;html=1;endArrow=none;startArrow=ERmandOne;rounded=0;entryX=0;entryY=0.5;entryDx=0;entryDy=0;exitX=1.023;exitY=1.089;exitDx=0;exitDy=0;exitPerimeter=0;endFill=0;labelBackgroundColor=none;strokeColor=#788AA3;fontColor=#000000;" parent="1" source="mR3RYauKtjzumqwkYDXa-4" target="p3Tt-YkkRpSDPijZvC6o-59" edge="1">
          <mxGeometry width="100" height="100" relative="1" as="geometry">
            <mxPoint x="1219" y="1199" as="sourcePoint" />
            <mxPoint x="1319" y="1099" as="targetPoint" />
          </mxGeometry>
        </mxCell>
        <mxCell id="V-uk5Y1F8bTmsxMr_i8K-37" value="" style="fontSize=12;html=1;endArrow=ERmandOne;startArrow=none;rounded=0;exitX=1;exitY=0.5;exitDx=0;exitDy=0;entryX=0;entryY=0;entryDx=0;entryDy=0;startFill=0;labelBackgroundColor=none;strokeColor=#788AA3;fontColor=#000000;" parent="1" source="p3Tt-YkkRpSDPijZvC6o-59" target="2zF8VjNUCW6DVoFqIz8W-188" edge="1">
          <mxGeometry width="100" height="100" relative="1" as="geometry">
            <mxPoint x="1491" y="1111" as="sourcePoint" />
            <mxPoint x="1591" y="1011" as="targetPoint" />
          </mxGeometry>
        </mxCell>
        <mxCell id="V-uk5Y1F8bTmsxMr_i8K-38" value="" style="edgeStyle=orthogonalEdgeStyle;fontSize=12;html=1;endArrow=ERmany;startArrow=ERmany;rounded=0;exitX=1;exitY=0.5;exitDx=0;exitDy=0;entryX=0;entryY=0.5;entryDx=0;entryDy=0;labelBackgroundColor=none;strokeColor=#788AA3;fontColor=#000000;" parent="1" source="p3Tt-YkkRpSDPijZvC6o-30" target="2zF8VjNUCW6DVoFqIz8W-217" edge="1">
          <mxGeometry width="100" height="100" relative="1" as="geometry">
            <mxPoint x="1628" y="674" as="sourcePoint" />
            <mxPoint x="1728" y="574" as="targetPoint" />
          </mxGeometry>
        </mxCell>
        <mxCell id="V-uk5Y1F8bTmsxMr_i8K-39" value="" style="fontSize=12;html=1;endArrow=none;startArrow=ERmany;rounded=0;exitX=1;exitY=0;exitDx=0;exitDy=0;entryX=0;entryY=0.5;entryDx=0;entryDy=0;endFill=0;labelBackgroundColor=none;strokeColor=#788AA3;fontColor=#000000;" parent="1" source="2zF8VjNUCW6DVoFqIz8W-136" target="p3Tt-YkkRpSDPijZvC6o-30" edge="1">
          <mxGeometry width="100" height="100" relative="1" as="geometry">
            <mxPoint x="1433" y="688" as="sourcePoint" />
            <mxPoint x="1533" y="588" as="targetPoint" />
          </mxGeometry>
        </mxCell>
        <mxCell id="V-uk5Y1F8bTmsxMr_i8K-40" value="" style="edgeStyle=orthogonalEdgeStyle;fontSize=12;html=1;endArrow=none;startArrow=ERmany;rounded=0;entryX=0.5;entryY=1;entryDx=0;entryDy=0;exitX=0;exitY=0;exitDx=0;exitDy=0;startFill=0;endFill=0;labelBackgroundColor=none;strokeColor=#788AA3;fontColor=#000000;" parent="1" source="2zF8VjNUCW6DVoFqIz8W-188" target="p3Tt-YkkRpSDPijZvC6o-62" edge="1">
          <mxGeometry width="100" height="100" relative="1" as="geometry">
            <mxPoint x="1379" y="970" as="sourcePoint" />
            <mxPoint x="1479" y="870" as="targetPoint" />
          </mxGeometry>
        </mxCell>
        <mxCell id="V-uk5Y1F8bTmsxMr_i8K-41" value="" style="edgeStyle=orthogonalEdgeStyle;fontSize=12;html=1;endArrow=none;startArrow=ERmany;rounded=0;exitX=1;exitY=0.5;exitDx=0;exitDy=0;entryX=0.5;entryY=0;entryDx=0;entryDy=0;endFill=0;labelBackgroundColor=none;strokeColor=#788AA3;fontColor=#000000;" parent="1" source="2zF8VjNUCW6DVoFqIz8W-140" target="p3Tt-YkkRpSDPijZvC6o-62" edge="1">
          <mxGeometry width="100" height="100" relative="1" as="geometry">
            <mxPoint x="1439" y="600" as="sourcePoint" />
            <mxPoint x="1539" y="700" as="targetPoint" />
          </mxGeometry>
        </mxCell>
        <mxCell id="V-uk5Y1F8bTmsxMr_i8K-42" value="" style="endArrow=none;dashed=1;html=1;dashPattern=1 3;strokeWidth=2;rounded=0;entryX=0.5;entryY=1;entryDx=0;entryDy=0;exitX=0.5;exitY=0;exitDx=0;exitDy=0;labelBackgroundColor=none;strokeColor=#788AA3;fontColor=#000000;" parent="1" source="p3Tt-YkkRpSDPijZvC6o-81" edge="1">
          <mxGeometry width="50" height="50" relative="1" as="geometry">
            <mxPoint x="1842" y="858" as="sourcePoint" />
            <mxPoint x="1940" y="804" as="targetPoint" />
          </mxGeometry>
        </mxCell>
        <mxCell id="V-uk5Y1F8bTmsxMr_i8K-43" value="" style="endArrow=none;dashed=1;html=1;dashPattern=1 3;strokeWidth=2;rounded=0;entryX=0.5;entryY=1;entryDx=0;entryDy=0;exitX=0.5;exitY=0;exitDx=0;exitDy=0;labelBackgroundColor=none;strokeColor=#788AA3;fontColor=#000000;" parent="1" source="p3Tt-YkkRpSDPijZvC6o-83" edge="1">
          <mxGeometry width="50" height="50" relative="1" as="geometry">
            <mxPoint x="1989" y="870" as="sourcePoint" />
            <mxPoint x="1940" y="804" as="targetPoint" />
          </mxGeometry>
        </mxCell>
        <mxCell id="V-uk5Y1F8bTmsxMr_i8K-44" value="" style="endArrow=none;dashed=1;html=1;dashPattern=1 3;strokeWidth=2;rounded=0;entryX=0.5;entryY=1;entryDx=0;entryDy=0;exitX=0.5;exitY=0;exitDx=0;exitDy=0;labelBackgroundColor=none;strokeColor=#788AA3;fontColor=#000000;" parent="1" target="p3Tt-YkkRpSDPijZvC6o-84" edge="1">
          <mxGeometry width="50" height="50" relative="1" as="geometry">
            <mxPoint x="1940" y="748" as="sourcePoint" />
            <mxPoint x="1912" y="695" as="targetPoint" />
          </mxGeometry>
        </mxCell>
        <mxCell id="V-uk5Y1F8bTmsxMr_i8K-45" value="" style="endArrow=none;dashed=1;html=1;dashPattern=1 3;strokeWidth=2;rounded=0;entryX=0.5;entryY=1;entryDx=0;entryDy=0;exitX=0.5;exitY=0;exitDx=0;exitDy=0;labelBackgroundColor=none;strokeColor=#788AA3;fontColor=#000000;" parent="1" source="p3Tt-YkkRpSDPijZvC6o-82" edge="1">
          <mxGeometry width="50" height="50" relative="1" as="geometry">
            <mxPoint x="1774" y="746" as="sourcePoint" />
            <mxPoint x="1940" y="804" as="targetPoint" />
          </mxGeometry>
        </mxCell>
        <mxCell id="V-uk5Y1F8bTmsxMr_i8K-46" value="" style="fontSize=12;html=1;endArrow=none;startArrow=ERmany;rounded=0;entryX=0.5;entryY=1;entryDx=0;entryDy=0;exitX=0.25;exitY=0;exitDx=0;exitDy=0;startFill=0;endFill=0;labelBackgroundColor=none;strokeColor=#788AA3;fontColor=#000000;" parent="1" source="2zF8VjNUCW6DVoFqIz8W-188" target="p3Tt-YkkRpSDPijZvC6o-71" edge="1">
          <mxGeometry width="100" height="100" relative="1" as="geometry">
            <mxPoint x="1636" y="974" as="sourcePoint" />
            <mxPoint x="1736" y="874" as="targetPoint" />
          </mxGeometry>
        </mxCell>
        <mxCell id="V-uk5Y1F8bTmsxMr_i8K-47" value="" style="edgeStyle=orthogonalEdgeStyle;fontSize=12;html=1;endArrow=ERmany;startArrow=none;rounded=0;entryX=-0.028;entryY=1.28;entryDx=0;entryDy=0;entryPerimeter=0;exitX=0.5;exitY=0;exitDx=0;exitDy=0;endFill=0;startFill=0;labelBackgroundColor=none;strokeColor=#788AA3;fontColor=#000000;" parent="1" source="p3Tt-YkkRpSDPijZvC6o-71" target="2zF8VjNUCW6DVoFqIz8W-223" edge="1">
          <mxGeometry width="100" height="100" relative="1" as="geometry">
            <mxPoint x="1685" y="673" as="sourcePoint" />
            <mxPoint x="1784" y="579" as="targetPoint" />
            <Array as="points">
              <mxPoint x="1693" y="673" />
              <mxPoint x="1729" y="673" />
              <mxPoint x="1729" y="490" />
            </Array>
          </mxGeometry>
        </mxCell>
        <mxCell id="V-uk5Y1F8bTmsxMr_i8K-48" value="" style="edgeStyle=entityRelationEdgeStyle;fontSize=12;html=1;endArrow=ERmany;startArrow=ERmany;rounded=0;entryX=0;entryY=0.5;entryDx=0;entryDy=0;labelBackgroundColor=none;strokeColor=#788AA3;fontColor=#000000;" parent="1" source="2zF8VjNUCW6DVoFqIz8W-188" target="NQl4g8ffTXq-lCRHdxoR-1" edge="1">
          <mxGeometry width="100" height="100" relative="1" as="geometry">
            <mxPoint x="1765" y="1090" as="sourcePoint" />
            <mxPoint x="1883.5" y="776" as="targetPoint" />
            <Array as="points">
              <mxPoint x="1840" y="1212" />
              <mxPoint x="1903" y="1233" />
              <mxPoint x="1839" y="1067" />
            </Array>
          </mxGeometry>
        </mxCell>
        <mxCell id="4TAAjnSzIqckUplBbA9e-10" value="" style="endArrow=none;dashed=1;html=1;dashPattern=1 3;strokeWidth=2;rounded=0;entryX=0.5;entryY=1;entryDx=0;entryDy=0;exitX=0.5;exitY=0;exitDx=0;exitDy=0;labelBackgroundColor=none;strokeColor=#788AA3;fontColor=#000000;" parent="1" source="4TAAjnSzIqckUplBbA9e-11" target="p3Tt-YkkRpSDPijZvC6o-5" edge="1">
          <mxGeometry width="50" height="50" relative="1" as="geometry">
            <mxPoint x="225" y="1200" as="sourcePoint" />
            <mxPoint x="354" y="1197" as="targetPoint" />
          </mxGeometry>
        </mxCell>
        <mxCell id="4TAAjnSzIqckUplBbA9e-11" value="Quantity_Type" style="whiteSpace=wrap;html=1;align=center;fillColor=#B2C9AB;strokeColor=#788AA3;labelBackgroundColor=none;fontColor=#000000;fontStyle=1" parent="1" vertex="1">
          <mxGeometry x="117" y="1209.5" width="85" height="36" as="geometry" />
        </mxCell>
        <mxCell id="4TAAjnSzIqckUplBbA9e-16" value="" style="edgeStyle=orthogonalEdgeStyle;fontSize=12;html=1;endArrow=none;startArrow=none;rounded=0;strokeColor=#788AA3;fontColor=#000000;fillColor=#B2C9AB;startFill=0;endFill=0;labelBackgroundColor=none;exitX=0.25;exitY=0;exitDx=0;exitDy=0;" parent="1" source="2zF8VjNUCW6DVoFqIz8W-1" target="4TAAjnSzIqckUplBbA9e-17" edge="1">
          <mxGeometry width="100" height="100" relative="1" as="geometry">
            <mxPoint x="306" y="95" as="sourcePoint" />
            <mxPoint x="2239" y="605" as="targetPoint" />
            <Array as="points">
              <mxPoint x="116" y="118" />
              <mxPoint x="1638" y="118" />
              <mxPoint x="1638" y="286" />
              <mxPoint x="2208" y="286" />
            </Array>
          </mxGeometry>
        </mxCell>
        <mxCell id="4TAAjnSzIqckUplBbA9e-17" value="Execute" style="shape=rhombus;perimeter=rhombusPerimeter;whiteSpace=wrap;html=1;align=center;strokeColor=#788AA3;fontColor=#000000;fillColor=#B2C9AB;labelBackgroundColor=none;fontStyle=1" parent="1" vertex="1">
          <mxGeometry x="2158" y="1016.5" width="105" height="54" as="geometry" />
        </mxCell>
        <mxCell id="4TAAjnSzIqckUplBbA9e-18" value="" style="edgeStyle=orthogonalEdgeStyle;fontSize=12;html=1;endArrow=none;startArrow=ERmany;rounded=0;strokeColor=#788AA3;fontColor=#000000;fillColor=#B2C9AB;entryX=0.5;entryY=1;entryDx=0;entryDy=0;exitX=1;exitY=0;exitDx=0;exitDy=0;startFill=0;endFill=0;labelBackgroundColor=none;" parent="1" source="2zF8VjNUCW6DVoFqIz8W-188" target="4TAAjnSzIqckUplBbA9e-17" edge="1">
          <mxGeometry width="100" height="100" relative="1" as="geometry">
            <mxPoint x="2158" y="1107" as="sourcePoint" />
            <mxPoint x="2258" y="1007" as="targetPoint" />
            <Array as="points">
              <mxPoint x="2208" y="1173" />
            </Array>
          </mxGeometry>
        </mxCell>
        <mxCell id="fA2K2a8_lugMrLm0uG4D-1" value="Serving_Type" style="whiteSpace=wrap;html=1;align=center;fillColor=#B2C9AB;strokeColor=#788AA3;labelBackgroundColor=none;fontColor=#000000;fontStyle=1" parent="1" vertex="1">
          <mxGeometry x="229" y="1209.5" width="85" height="35" as="geometry" />
        </mxCell>
        <mxCell id="fA2K2a8_lugMrLm0uG4D-2" value="" style="endArrow=none;dashed=1;html=1;dashPattern=1 3;strokeWidth=2;rounded=0;entryX=0.5;entryY=1;entryDx=0;entryDy=0;exitX=0.5;exitY=0;exitDx=0;exitDy=0;labelBackgroundColor=none;strokeColor=#788AA3;fontColor=#000000;" parent="1" source="fA2K2a8_lugMrLm0uG4D-1" target="p3Tt-YkkRpSDPijZvC6o-5" edge="1">
          <mxGeometry width="50" height="50" relative="1" as="geometry">
            <mxPoint x="315" y="1235" as="sourcePoint" />
            <mxPoint x="365" y="1185" as="targetPoint" />
          </mxGeometry>
        </mxCell>
        <mxCell id="fA2K2a8_lugMrLm0uG4D-9" value="" style="endArrow=none;dashed=1;html=1;dashPattern=1 3;strokeWidth=2;rounded=0;entryX=0.5;entryY=1;entryDx=0;entryDy=0;exitX=0.5;exitY=0;exitDx=0;exitDy=0;labelBackgroundColor=none;strokeColor=#788AA3;fontColor=#000000;" parent="1" source="fA2K2a8_lugMrLm0uG4D-10" target="p3Tt-YkkRpSDPijZvC6o-71" edge="1">
          <mxGeometry width="50" height="50" relative="1" as="geometry">
            <mxPoint x="1633" y="851" as="sourcePoint" />
            <mxPoint x="1683" y="801" as="targetPoint" />
            <Array as="points" />
          </mxGeometry>
        </mxCell>
        <mxCell id="fA2K2a8_lugMrLm0uG4D-10" value="Judge_Number" style="whiteSpace=wrap;html=1;align=center;fillColor=#B2C9AB;strokeColor=#788AA3;labelBackgroundColor=none;fontColor=#000000;fontStyle=1" parent="1" vertex="1">
          <mxGeometry x="1596" y="902" width="90" height="36" as="geometry" />
        </mxCell>
        <mxCell id="fA2K2a8_lugMrLm0uG4D-11" value="" style="edgeStyle=orthogonalEdgeStyle;fontSize=12;html=1;endArrow=ERmandOne;startArrow=none;rounded=0;exitX=1;exitY=0.5;exitDx=0;exitDy=0;entryX=0;entryY=0.5;entryDx=0;entryDy=0;startFill=0;labelBackgroundColor=none;strokeColor=#788AA3;fontColor=#000000;" parent="1" source="p3Tt-YkkRpSDPijZvC6o-28" target="p3Tt-YkkRpSDPijZvC6o-60" edge="1">
          <mxGeometry width="100" height="100" relative="1" as="geometry">
            <mxPoint x="979" y="387" as="sourcePoint" />
            <mxPoint x="1113" y="946" as="targetPoint" />
            <Array as="points">
              <mxPoint x="1254" y="381" />
              <mxPoint x="1254" y="386" />
            </Array>
          </mxGeometry>
        </mxCell>
        <mxCell id="p3Tt-YkkRpSDPijZvC6o-60" value="Has" style="shape=rhombus;perimeter=rhombusPerimeter;whiteSpace=wrap;html=1;align=center;labelBackgroundColor=none;fillColor=#B2C9AB;strokeColor=#788AA3;fontColor=#000000;fontStyle=1" parent="1" vertex="1">
          <mxGeometry x="1267" y="358" width="105" height="56" as="geometry" />
        </mxCell>
        <mxCell id="NQl4g8ffTXq-lCRHdxoR-1" value="Cook_Episode_&lt;div&gt;Contestants&lt;/div&gt;" style="shape=associativeEntity;whiteSpace=wrap;html=1;align=center;labelBackgroundColor=none;fillColor=#B2C9AB;strokeColor=#788AA3;fontColor=#000000;fontStyle=1" parent="1" vertex="1">
          <mxGeometry x="1870" y="751" width="140" height="60" as="geometry" />
        </mxCell>
        <mxCell id="NQl4g8ffTXq-lCRHdxoR-2" value="" style="edgeStyle=orthogonalEdgeStyle;fontSize=12;html=1;endArrow=ERoneToMany;rounded=0;entryX=1;entryY=0;entryDx=0;entryDy=0;labelBackgroundColor=none;strokeColor=#788AA3;fontColor=#000000;" parent="1" source="2zF8VjNUCW6DVoFqIz8W-217" target="NQl4g8ffTXq-lCRHdxoR-1" edge="1">
          <mxGeometry width="100" height="100" relative="1" as="geometry">
            <mxPoint x="2013" y="505" as="sourcePoint" />
            <mxPoint x="2083" y="488" as="targetPoint" />
          </mxGeometry>
        </mxCell>
        <mxCell id="NQl4g8ffTXq-lCRHdxoR-6" value="" style="edgeStyle=entityRelationEdgeStyle;fontSize=12;html=1;endArrow=none;startArrow=none;rounded=0;strokeColor=#788AA3;fontColor=#000000;fillColor=#B2C9AB;startFill=0;endFill=0;entryX=0;entryY=0.5;entryDx=0;entryDy=0;" parent="1" target="NQl4g8ffTXq-lCRHdxoR-8" edge="1">
          <mxGeometry width="100" height="100" relative="1" as="geometry">
            <mxPoint x="1636" y="118" as="sourcePoint" />
            <mxPoint x="1914" y="117.99999999999994" as="targetPoint" />
          </mxGeometry>
        </mxCell>
        <mxCell id="NQl4g8ffTXq-lCRHdxoR-8" value="Has" style="shape=rhombus;perimeter=rhombusPerimeter;whiteSpace=wrap;html=1;align=center;strokeColor=#788AA3;fontColor=#000000;fillColor=#B2C9AB;fontStyle=1" parent="1" vertex="1">
          <mxGeometry x="1851" y="87.99999999999994" width="120" height="60" as="geometry" />
        </mxCell>
        <mxCell id="NQl4g8ffTXq-lCRHdxoR-9" value="" style="edgeStyle=orthogonalEdgeStyle;fontSize=12;html=1;endArrow=ERoneToMany;rounded=0;strokeColor=#788AA3;fontColor=#000000;fillColor=#B2C9AB;exitX=1;exitY=0.5;exitDx=0;exitDy=0;entryX=1;entryY=0.5;entryDx=0;entryDy=0;" parent="1" source="NQl4g8ffTXq-lCRHdxoR-8" target="NQl4g8ffTXq-lCRHdxoR-1" edge="1">
          <mxGeometry width="100" height="100" relative="1" as="geometry">
            <mxPoint x="2010" y="117" as="sourcePoint" />
            <mxPoint x="2342" y="479" as="targetPoint" />
            <Array as="points">
              <mxPoint x="1971" y="122" />
              <mxPoint x="2211" y="122" />
              <mxPoint x="2211" y="781" />
            </Array>
          </mxGeometry>
        </mxCell>
      </root>
    </mxGraphModel>
  </diagram>
</mxfile>
